<svg xmlns="http://www.w3.org/2000/svg" viewBox="0 0 1348 1079">
  <g id="a399172c-c3c5-4e8c-a5be-158690bf8df8" data-name="OBJECTS">
    <g>
      <g>
        <path d="M1165.245,261.288H1024.929a4.5,4.5,0,0,0-4.5,4.5v38.235a4.5,4.5,0,0,0,4.5,4.5h12.756V321.09l15.815-12.575h111.745a4.5,4.5,0,0,0,4.5-4.5V265.784A4.5,4.5,0,0,0,1165.245,261.288Z" style="fill: none;stroke: #86a7ff;stroke-miterlimit: 10"/>
        <g>
          <path d="M1180.169,774.149c-.826,2.578-1.688,5.166-2.605,7.744-17.131,48.6-49.149,96.537-99.787,139.05H226.965c-15.878-34.116-28.678-71.155-41.977-108.875-8.27-23.457-14.707-51.518-19.155-80.976-12.428-82.276-9.3-175.49,13.027-209.969,32.173-49.693,77.609-77.482,122.319-92.742a256.491,256.491,0,0,1,83.037-13.69,260.124,260.124,0,0,1,38.3,2.869q1.906.272,3.813.6,3.677.585,7.335,1.307,6.523,1.252,13,2.842c3.05.753,6.1,1.552,9.133,2.424,2.224.626,4.439,1.28,6.645,1.979,2.542.789,5.084,1.625,7.607,2.5,2.37.817,4.739,1.671,7.09,2.56a268.293,268.293,0,0,1,29.468,13.191c.245.127.481.254.726.372a542.023,542.023,0,0,0,60.987,27.053c.518.19,1.044.381,1.571.581,7.834,2.878,15.995,5.674,24.465,8.325A484.211,484.211,0,0,0,716.422,503.3c11.493.545,23.24.653,35.2.263.553-.009,1.116-.027,1.679-.054a432.765,432.765,0,0,0,45.146-4c.472-.063.944-.136,1.416-.2a432.676,432.676,0,0,0,43.784-8.679q18.111-4.562,36.6-10.939c1.879-.654,3.758-1.326,5.637-2q4.563-1.662,9.133-3.414,5.964-2.315,11.956-4.82,5.91-2.464,11.838-5.148,5.528-2.491,11.048-4.575c1.116-.427,2.242-.844,3.368-1.235.554-.2,1.107-.4,1.661-.59.645-.218,1.289-.436,1.943-.653C1092.447,405.531,1238.215,592.786,1180.169,774.149Z" style="fill: #edf1f7"/>
          <path d="M514.1,317.2S495.886,423.868,694.349,431.519,983.263,292.527,918.523,252.374c-56.705-35.17-131.474,17.411-211.361-11.147C604.571,204.552,513.82,252.082,514.1,317.2Z" style="fill: #edf1f7"/>
        </g>
        <g>
          <path d="M1280.485,479.435a14.647,14.647,0,1,1-14.647-14.852A14.751,14.751,0,0,1,1280.485,479.435Z" style="fill: none;stroke: #86a7ff;stroke-miterlimit: 10"/>
          <path d="M97.754,607.589a15.121,15.121,0,1,1-15.119-15.332A15.226,15.226,0,0,1,97.754,607.589Z" style="fill: none;stroke: #86a7ff;stroke-miterlimit: 10"/>
          <line x1="1112.43" y1="387.228" x2="1184.937" y2="387.228" style="fill: none;stroke: #86a7ff;stroke-miterlimit: 10"/>
          <line x1="152.072" y1="731.096" x2="285.962" y2="731.096" style="fill: none;stroke: #86a7ff;stroke-miterlimit: 10"/>
        </g>
        <g>
          <path d="M348.792,281.885H186.145a6.948,6.948,0,0,1-6.948-6.948h0a6.948,6.948,0,0,1,6.948-6.948H348.792a6.948,6.948,0,0,1,6.948,6.948h0A6.948,6.948,0,0,1,348.792,281.885Z" style="fill: none;stroke: #86a7ff;stroke-miterlimit: 10"/>
          <path d="M1269.969,787.5h-71.834a6.948,6.948,0,0,1-6.948-6.948h0a6.948,6.948,0,0,1,6.948-6.948h71.834a6.948,6.948,0,0,1,6.948,6.948h0A6.948,6.948,0,0,1,1269.969,787.5Z" style="fill: none;stroke: #86a7ff;stroke-miterlimit: 10"/>
          <rect x="718.137" y="158.812" width="21.499" height="20.823" rx="2.69" style="fill: none;stroke: #86a7ff;stroke-miterlimit: 10"/>
          <rect x="144.627" y="812.819" width="21.499" height="20.823" rx="2.69" style="fill: none;stroke: #86a7ff;stroke-miterlimit: 10"/>
        </g>
        <g>
          <line x1="1042.007" y1="277.489" x2="1139.176" y2="277.489" style="fill: none;stroke: #edf1f7;stroke-miterlimit: 10;stroke-width: 3px"/>
          <line x1="1042.007" y1="290.154" x2="1085.281" y2="290.154" style="fill: none;stroke: #edf1f7;stroke-miterlimit: 10;stroke-width: 3px"/>
        </g>
        <g>
          <g>
            <g>
              <path d="M1004.68,920.943H936.394L918.12,790.508l-.8-5.7,7.181-32.7,7.126-32.454,4.1-7.181,18.184-31.8,9.714-16.967,7.217-12.628,3.821-6.682,6.21-10.857c.835,4.984,1.661,10.53,2.478,16.558,1.734,12.81,3.432,27.807,5.066,44.265C995.229,762.683,1001.049,855.979,1004.68,920.943Z" style="fill: #1b1b43"/>
              <g>
                <path d="M980.877,633.538l-6.21,10.857-3.821,6.682-7.217,12.628-9.714,16.967-18.184,31.8-4.1,7.181-12.255,65.154-.527,2.4-.726,3.3L889.478,920.943H813.022c7.308-64.056,18.52-154.365,31.038-227.108,2.669-15.533,5.411-30.276,8.171-43.784,1.035-4.993,2.06-9.832,3.1-14.47Z" style="fill: #1b1b43"/>
                <polyline points="918.395 790.016 930.312 716.046 948.902 703.783" style="fill: none;stroke: #86a7ff;stroke-miterlimit: 10;opacity: 0.4"/>
              </g>
            </g>
            <g>
              <g>
                <path d="M880.418,479.909a28.943,28.943,0,0,0-38.878-5.836L719.816,547.795A31.16,31.16,0,0,0,711,590.188h0c9.711,15.382,21.958,18.536,36.514,7.625,12.907-9.674,126.523-69.106,135.853-76.136C896.4,511.858,890.616,492.646,880.418,479.909Z" style="fill: #eb5d60"/>
                <g>
                  <path d="M837.425,664.21,750.663,557.164a25.954,25.954,0,0,0-37.543-.955h0c-10.613,10.571-7.9,31.105,3.321,41.028l99.366,85.836Z" style="fill: #eb5d60"/>
                  <path d="M889.194,671.837l-25.735-14.318,2.79-5.662a5.1,5.1,0,0,0-7.528-6.408l-25.512,18.112-17.4,19.512c13.719,12.664,22.984,12.859,28.41,10.708.615.23,1.222.481,1.847.686l21.569,7.066a4.153,4.153,0,0,0,5.424-1.74c.771-1.395,1.109-3.666-3.008-5.954l4.117,2.288a4.315,4.315,0,0,0,5.685-1.9c1.006-1.82-.052-4.313-2.457-6.009l3.166,1.381a4.43,4.43,0,0,0,6.033-2.386,4.594,4.594,0,0,0-2.189-5.6l-4.549-2.519,5.455,1.539a4.809,4.809,0,0,0,6.309-2.884A4.985,4.985,0,0,0,889.194,671.837Z" style="fill: #ffbc96"/>
                </g>
              </g>
              <g>
                <path d="M959.247,479.746c8.181-11.779,22.8-14.288,33.567-5.758L1097.7,547.954c11.957,9.476,15.277,28.231,7.509,42.411h0c-8.416,15.362-18.993,18.492-31.53,7.552-11.117-9.7-109.034-69.361-117.069-76.41C945.38,511.662,950.416,492.462,959.247,479.746Z" style="fill: #eb5d60"/>
                <g>
                  <path d="M995.922,664.132l75.129-106.871c8.612-10.953,23.371-11.353,32.4-.879h0c9.135,10.593,6.746,31.121-2.962,41.021l-85.957,85.636Z" style="fill: #eb5d60"/>
                  <path d="M951.225,671.655l22.245-14.266-2.395-5.667a5.678,5.678,0,0,1,1.043-6.068,3.944,3.944,0,0,1,5.469-.325l21.975,18.163,14.974,19.547c-11.869,12.636-19.866,12.813-24.543,10.651-.532.229-1.056.479-1.6.682l-18.632,7.022a3.356,3.356,0,0,1-4.677-1.75c-.662-1.4-.948-3.669,2.61-5.948l-3.558,2.279a3.5,3.5,0,0,1-4.9-1.912c-.864-1.823.055-4.314,2.134-6l-2.735,1.375c-1.978,1.087-4.375.039-5.2-2.4a4.932,4.932,0,0,1,1.9-5.6l3.932-2.51-4.712,1.528c-2.161.986-4.642-.27-5.438-2.9A5.335,5.335,0,0,1,951.225,671.655Z" style="fill: #ffbc96"/>
                </g>
              </g>
              <g>
                <path d="M849.151,470.387S879.514,458.3,925.263,458.3s72.97,20.076,72.97,20.076L980.88,633.535l-125.557,2.042L834.567,523.971Z" style="fill: #eb5d60"/>
                <line x1="990.884" y1="544.09" x2="993.701" y2="518.898" style="fill: none;stroke: #20181f;stroke-linecap: round;stroke-linejoin: round;stroke-width: 1.05316px"/>
              </g>
            </g>
            <g>
              <g>
                <path d="M872.859,378.7s-28.723-43.856,5.861-48.911c20.653-3.019,26.608-9.5,51.867-18.338,29.217-10.229,69.412,22.475,26.075,54.892L888.939,351.6Z" style="fill: #1b1b43"/>
                <circle cx="949.406" cy="388.295" r="15.748" transform="translate(3.508 785.06) rotate(-45)" style="fill: #f9b384"/>
                <path d="M934.163,407.744l.776,54.1c.122,15.212-10.316,16.353-25.29,16.353h0c-12.782,0-19.272-4.616-20.857-17.3l2.109-57.513Z" style="fill: #ffbc96"/>
                <polygon points="934.878 456.249 899.338 430.746 934.394 420.676 934.878 456.249" style="fill: #20181f"/>
                <path d="M917.894,435.287h3.05a36.848,36.848,0,0,0,36.828-38.059l-1.244-37.815a38.415,38.415,0,0,0-38.394-37.152h0c-21.216,0-42.133,17.2-42.133,38.414l1.818,36.484A40.125,40.125,0,0,0,917.894,435.287Z" style="fill: #ffbc96"/>
                <g>
                  <polyline points="936.055 384.857 938.579 399.216 933.531 399.216" style="fill: none;stroke: #20181f;stroke-linecap: round;stroke-linejoin: round;stroke-width: 1.22526px"/>
                  <path d="M916.228,368.055s8.5-1,8.7,2.536c0,0,.07,2.394-7.349,3.116s-9.368.233-10.12-1.994S912.233,368.21,916.228,368.055Z" style="fill: #20181f"/>
                  <path d="M948.775,367.86s-7.057-.5-7.525,2.834c0,0-.262,2.26,5.912,2.562s8.152-.562,8.675-2.4C956.429,368.782,952.119,367.8,948.775,367.86Z" style="fill: #20181f"/>
                  <path d="M939.481,405.822h-23.8s-.063,8.325,13.768,8.344A9.554,9.554,0,0,0,939.481,405.822Z" style="fill: #fff"/>
                  <path d="M923.575,384.857s-4.165-3.034-9.779,0" style="fill: none;stroke: #20181f;stroke-linecap: round;stroke-linejoin: round;stroke-width: 1.22526px"/>
                  <path d="M952.1,384.857s-2.8-3.034-8.416,0" style="fill: none;stroke: #20181f;stroke-linecap: round;stroke-linejoin: round;stroke-width: 1.22526px"/>
                </g>
                <path d="M882.87,388.437s24.183-15.377,15.524-37.023c0,0,39.2-18.913,57.213.794l4.825-25.184L929.477,314.5,881,333.63l-12.509,18.684,4.205,24.113Z" style="fill: #102048"/>
                <g>
                  <circle cx="872.87" cy="388.295" r="15.748" transform="translate(178.752 1044.706) rotate(-67.383)" style="fill: #ffbc96"/>
                  <path d="M878.373,392.977s0-11.417-10.917-9.62" style="fill: none;stroke: #20181f;stroke-linecap: round;stroke-linejoin: round;stroke-width: 1.22526px"/>
                </g>
              </g>
              <g>
                <g>
                  <polygon points="898.574 479.27 911.19 490.931 925.204 474.926 911.19 472.725 898.574 479.27" style="fill: #fff"/>
                  <polygon points="908.671 488.538 894.883 603.496 911.57 622.445 926.687 603.268 913.298 488.063 908.671 488.538" style="fill: #fff"/>
                </g>
                <g>
                  <polygon points="888.987 455.577 911.19 472.725 896.37 490.931 874.526 463.376 888.987 455.577" style="fill: #f4eded"/>
                  <polygon points="934.878 456.249 911.19 472.725 926.009 490.931 948.546 463.376 934.878 456.249" style="fill: #f4eded"/>
                </g>
              </g>
            </g>
          </g>
          <g>
            <g>
              <g>
                <path d="M469.045,489.506a20.693,20.693,0,0,1,40.451-8.689c1.948,8.122,3.313,22.409,4.609,37.612l-42.586,13Z" style="fill: #fff"/>
                <path d="M471.519,531.427l42.586-13,5.629,58.643c1.035,10.783-6.832,20.043-17.561,21.533l-.384.057h0a22.277,22.277,0,0,1-25.278-17.871Z" style="fill: #ffbc96"/>
              </g>
              <g>
                <path d="M534.5,741.933,517.924,558.209s-7.759,1.841-18.216,3.514h0a18.557,18.557,0,0,0-15.169,22.408l27.3,158.2Z" style="fill: #ffbc96"/>
                <g>
                  <path d="M505.961,738.854a22.265,22.265,0,1,1,12.575,28.868A22.266,22.266,0,0,1,505.961,738.854Z" style="fill: #ffbc96"/>
                  <path d="M539.032,764.035s5.936,6.474,11.032-4.039,4.912-23.914-15.235-33.716Z" style="fill: #ffbc96"/>
                </g>
              </g>
            </g>
            <path d="M400.15,367.393l87.526,19.837s32.53,46.118,15.7,112.072h-145.1s-11.844-26.555,14.379-63.314c16.111-22.586,27.5-68.6,27.5-68.6Z" style="fill: #1b1b43"/>
            <g>
              <path d="M548.077,920.943H472.42L450.387,812.985l14.307-149.48,6.863-71.645-15.732-.49-33.517-1.044,6.282-9.178,52.408,9.4,4.549.817s.136.318.417,1.008c.291.735.736,1.9,1.317,3.567,4.057,11.466,14.988,46.771,30.62,130.589q1.4,7.558,2.869,15.642,2.314,12.841,4.748,27.062,1.006,5.869,2.033,11.974C537.2,838.8,543.71,885.311,548.077,920.943Z" style="fill: #ffb147"/>
              <g>
                <path d="M471.557,591.86l-6.863,71.645-14.307,149.48-10.34,107.958H362.256c-1.37-72.017-2.723-167.81-1.425-217.213A216.467,216.467,0,0,1,364,671.948a198.882,198.882,0,0,1,9.741-35.7c9.342-24.765,20.989-40,25.074-44.882.953-1.144,1.5-1.725,1.5-1.725l22,.681,33.517,1.044Z" style="fill: #ffb147"/>
                <g>
                  <line x1="450.383" y1="812.983" x2="460.391" y2="666.892" style="fill: none;stroke: #20181f;stroke-linecap: round;stroke-linejoin: round;stroke-width: 1.05316px"/>
                  <line x1="460.391" y1="666.892" x2="478.113" y2="652.968" style="fill: none;stroke: #20181f;stroke-linecap: round;stroke-linejoin: round;stroke-width: 1.05316px"/>
                </g>
              </g>
            </g>
            <g>
              <g>
                <path d="M443.229,460.458l-54.165,7.576a11.182,11.182,0,0,0-9.462,13.023l18.767,110.317h87.175l22.74-105.962a16.623,16.623,0,0,0-14.563-19.456Z" style="fill: #fff"/>
                <line x1="500.294" y1="522.644" x2="506.609" y2="495.268" style="fill: none;stroke: #20181f;stroke-linecap: round;stroke-linejoin: round;stroke-width: 1.05316px"/>
              </g>
              <g>
                <g>
                  <path d="M342.021,487.2l19.66,54.426s-60.824,20.469-74.192,28.632c-15.076,9.206-26.624,5.029-34.595-10.734h0A30.259,30.259,0,0,1,265.32,519.35Z" style="fill: #ffbc96"/>
                  <path d="M380.044,471.256a28.1,28.1,0,0,1,37.045,9.223c8.685,13.252,12.5,32.356-1,40.647-9.666,5.937-54.412,20.5-54.412,20.5L342.021,487.2Z" style="fill: #fff"/>
                  <line x1="387.465" y1="532.818" x2="406.726" y2="524.952" style="fill: none;stroke: #20181f;stroke-linecap: round;stroke-linejoin: round;stroke-width: 1.05316px"/>
                </g>
                <g>
                  <path d="M368.287,642.72,294.276,531.249a25.2,25.2,0,0,0-36.2-4.381h0c-11.234,9.241-10.5,29.34-.569,39.966l88.148,92.13Z" style="fill: #ffbc96"/>
                  <path d="M417.629,654.862,394.07,638.65l3.219-5.216a4.951,4.951,0,0,0-6.687-6.888L364.272,641.7l-18.621,17.26c12.095,13.5,21.034,14.547,26.477,12.967.574.28,1.137.578,1.723.834l20.2,8.817a4.033,4.033,0,0,0,5.4-1.182c.875-1.278,1.41-3.442-2.359-6.033l3.769,2.591a4.191,4.191,0,0,0,5.671-1.314c1.14-1.667.347-4.175-1.821-6.036l2.933,1.627a4.3,4.3,0,0,0,6.052-1.751,4.462,4.462,0,0,0-1.6-5.617l-4.165-2.854,5.132,1.99a4.669,4.669,0,0,0,6.364-2.207A4.841,4.841,0,0,0,417.629,654.862Z" style="fill: #ffbc96"/>
                </g>
              </g>
            </g>
            <g>
              <path d="M474.815,388.433a15.341,15.341,0,1,0,16.369-14.24A15.342,15.342,0,0,0,474.815,388.433Z" style="fill: #f9b384"/>
              <path d="M451.783,332.5c1.944-3.406-.555-9.782-.555-9.782-19.187,0-35.745,6.148-45.283,23.687-14.031,25.8-3.841,65.691,29.174,77.828,31.682,11.647,14.809-88.482,14.809-88.482Z" style="fill: #1b1b43"/>
              <path d="M469.875,430.6l-2.122,33.368c-.721,11.719-8.328,17.54-19.857,16.738h0c-9.841-.685-18.734-6.408-19.275-16.258l5.866-52.351Z" style="fill: #ffbc96"/>
              <polygon points="468.414 458.411 429.408 420.229 470.161 427.18 468.414 458.411" style="fill: #20181f"/>
              <path d="M459.722,435.988h0c19.713.058,35.993-15.465,36.582-31.563l1.161-37.988a37.425,37.425,0,0,0-34.8-38.7h0c-15.144-1.053-42.637,21.449-43.545,34.484l-.6,30.563C418.053,416.421,436.136,434.347,459.722,435.988Z" style="fill: #ffbc96"/>
              <g>
                <path d="M451.14,322.762c.1-.013.181-.031.278-.044C451.418,322.718,451.3,322.735,451.14,322.762Z" style="fill: #f7de9e"/>
                <path d="M496.693,357.358c.819-19.828-16.547-32.227-29.573-35.4a59.135,59.135,0,0,0-32.742,1.253c-12.6,4.227-26.22,13.625-16.936,34.275-6.083,3.006-11.5,6.43-11.5,6.43l22.676,27.153s1.643-7.475,4.01-23.443c11.836-4.675,11.39-11.588,12.61-19.032A201.923,201.923,0,0,0,496.693,357.358Z" style="fill: #1b1b43"/>
              </g>
              <g>
                <path d="M400.115,388.433a15.341,15.341,0,1,0,16.37-14.24A15.342,15.342,0,0,0,400.115,388.433Z" style="fill: #ffbc96"/>
                <path d="M420.452,394.421s.772-11.1-9.96-10.088" style="fill: none;stroke: #20181f;stroke-linecap: round;stroke-linejoin: round;stroke-width: 1.18452px"/>
              </g>
              <g>
                <line x1="476.908" y1="383.636" x2="469.487" y2="383.636" style="fill: none;stroke: #fff;stroke-miterlimit: 10;stroke-width: 1.3399500000000002px"/>
                <line x1="438.716" y1="383.636" x2="429.408" y2="383.636" style="fill: none;stroke: #fff;stroke-miterlimit: 10;stroke-width: 1.3399500000000002px"/>
                <circle cx="454.015" cy="383.345" r="15.299" transform="translate(-76.143 114.989) rotate(-13.328)" style="fill: none;stroke: #fff;stroke-miterlimit: 10;stroke-width: 1.3399500000000002px"/>
                <circle cx="491.231" cy="382.422" r="14.375" transform="translate(-126.535 459.362) rotate(-45)" style="fill: none;stroke: #fff;stroke-miterlimit: 10;stroke-width: 1.3208300000000002px"/>
              </g>
            </g>
          </g>
          <g>
            <g>
              <path d="M782.039,920.943H699.618l-19.944-115.22-14.8,115.22H576.882c3.667-88.784,11.193-215.615,25.491-272.272l134.756-5.592C744.6,670.168,767.468,821.755,782.039,920.943Z" style="fill: #3a6bea"/>
              <polyline points="679.671 805.723 690.717 720.756 717.012 708.151" style="fill: none;stroke: #20181f;stroke-linecap: round;stroke-linejoin: round;stroke-width: 1.05316px"/>
            </g>
            <g>
              <path d="M561.687,474.7s61.327-22.666,115.512-24.5c0,0,28.836-1.828,77.767,11.224a3.741,3.741,0,0,1,2.745,4.033L737.127,643.077,601.8,648.671Z" style="fill: #5254cf"/>
              <g>
                <g>
                  <polygon points="622.853 637.32 763.249 575.998 673.677 562.119 620.885 582.343 622.853 637.32" style="fill: #5254cf"/>
                  <g>
                    <path d="M541.819,517.172c7.428,31.8,38.257,101.24,38.257,101.24a32.813,32.813,0,0,0,42.777,18.908h0a32.813,32.813,0,0,0,18.593-42.153L603.033,493.986a32.729,32.729,0,0,0-44.709-17.915h0C542.98,483.4,537.95,500.612,541.819,517.172Z" style="fill: #5254cf"/>
                    <line x1="622.003" y1="543.954" x2="605.052" y2="499.302" style="fill: none;stroke: #20181f;stroke-linecap: round;stroke-linejoin: round;stroke-width: 1.05316px"/>
                  </g>
                </g>
                <g>
                  <g>
                    <path d="M723.2,516.162c19.523,26.173,71.526,69.448,71.526,69.448a32.812,32.812,0,0,0,46.768.225h0c12.645-12.724,12.728-29.221.186-42.047l-71.644-73.355a32.729,32.729,0,0,0-48.143,1.457h0C710.758,484.746,713.029,502.531,723.2,516.162Z" style="fill: #5254cf"/>
                    <path d="M747.116,535.293s3.081-16.68,27.561-22.59l26.17,18.376-9.285,8.19Z" style="fill: #ffbc96"/>
                  </g>
                  <g>
                    <polygon points="654.195 531.079 622.003 543.954 634.585 577.095 652.101 570.385 654.195 531.079" style="fill: #ffbc96"/>
                    <g>
                      <polygon points="654.195 531.079 832.484 541.708 821.55 595.34 652.101 570.385 654.195 531.079" style="fill: #5254cf"/>
                      <polyline points="654.195 531.079 747.116 535.293 753.535 490.115" style="fill: none;stroke: #20181f;stroke-linecap: round;stroke-linejoin: round;stroke-width: 1.05316px"/>
                      <polyline points="654.195 623.63 743.574 584.521 652.101 570.385" style="fill: none;stroke: #20181f;stroke-linecap: round;stroke-linejoin: round;stroke-width: 1.05316px"/>
                    </g>
                  </g>
                </g>
              </g>
            </g>
            <g>
              <path d="M649.057,311.629c-9.3.618-40.8,8.042-30.261,39.181,12.75,37.663,19.053,42.461,19.053,42.461l-1.064-56Z" style="fill: #1b1b43"/>
              <path d="M710.519,314.294s36.816,10.78,9.71,51.281l-37.356-42.222Z" style="fill: #1b1b43"/>
              <path d="M699.561,378.3a15.728,15.728,0,0,0,15.127,16.206,15.561,15.561,0,0,0,15.648-15.565,15.729,15.729,0,0,0-15.127-16.206A15.562,15.562,0,0,0,699.561,378.3Z" style="fill: #f9b384"/>
              <path d="M696.391,410.769l2.085,41.353c.729,13.967-7.313,20.26-20.638,20.791h0c-11.375.454-24.137-4.434-24.255-16.772l-.219-62.732Z" style="fill: #ffbc96"/>
              <path d="M698.232,445.663,650.091,414.4c-1.388-11.854,46.175-7.713,46.175-7.713Z" style="fill: #20181f"/>
              <path d="M682.387,427.731h0c21.651-1.036,38.632-19.551,38.349-37.838l-.8-38.254c-.355-22.92-18.254-41.477-40.453-41.94h0c-22.726-.473-45.443,18.08-45.827,41.541l.984,29.8C635.5,407.874,656.39,427.19,682.387,427.731Z" style="fill: #ffbc96"/>
              <g>
                <path d="M674.474,351.043s11.685-2.333,12.144,1.069c0,0,.25,2.31-6.78,3.553s-12.576,1.657-13.464-.441S670.67,351.486,674.474,351.043Z" style="fill: #20181f"/>
                <path d="M708.251,355.589s10.325.3,10.015,3.723c0,0,1.314,2.333-5.816,1.978s-10.649-1.053-11.046-3.3S704.444,355.173,708.251,355.589Z" style="fill: #20181f"/>
                <path d="M680.212,393.36c-.02.62,6.407,6.214,15.287,3.477" style="fill: none;stroke: #20181f;stroke-linecap: round;stroke-linejoin: round;stroke-width: 1.25044px"/>
                <path d="M706.568,371.736a3.573,3.573,0,1,0,3.486-3.657A3.573,3.573,0,0,0,706.568,371.736Z" style="fill: #20181f"/>
                <path d="M673.213,373.573A3.573,3.573,0,1,0,677,370.229,3.572,3.572,0,0,0,673.213,373.573Z" style="fill: #20181f"/>
                <path d="M697.6,376.747l4.95,8.743a1.45,1.45,0,0,1-.274,1.885l-3.061,1.672" style="fill: none;stroke: #20181f;stroke-linecap: round;stroke-linejoin: round;stroke-width: 1.25044px"/>
              </g>
              <path d="M644.867,378.464s-6.768-31.486,7.841-47.453c0,0,60.312,18.284,69.639-6.247,13.236-34.811-24.978-45.275-46.807-34.884a70.785,70.785,0,0,0-26.483,21.749s-41.135,8.921-18.858,54.238Z" style="fill: #1b1b43"/>
              <g>
                <path d="M614.7,381.281a15.576,15.576,0,0,0,14.98,16.048,15.41,15.41,0,0,0,15.5-15.414,15.575,15.575,0,0,0-14.98-16.048A15.41,15.41,0,0,0,614.7,381.281Z" style="fill: #ffbc96"/>
                <path d="M635.081,385.483s-1.423-10.259-10.406-9.83" style="fill: none;stroke: #20181f;stroke-linecap: round;stroke-linejoin: round;stroke-width: 1.25044px"/>
              </g>
              <path d="M654.2,452.078l-16.1,2.405s19.416,16.125,57.307,27.345l13.013-29.75L685.97,449.2Z" style="fill: #ffbc96"/>
            </g>
          </g>
          <line x1="1190.945" y1="920.943" x2="1077.777" y2="920.943" style="fill: none;stroke: #20181f;stroke-linecap: round;stroke-linejoin: round;stroke-width: 1.20405px"/>
          <line x1="226.965" y1="920.943" x2="184.988" y2="920.943" style="fill: none;stroke: #20181f;stroke-linecap: round;stroke-linejoin: round;stroke-width: 1.20405px"/>
        </g>
      </g>
      <line x1="1190.945" y1="920.943" x2="1077.777" y2="920.943" style="fill: none;stroke: #20181f;stroke-linecap: round;stroke-linejoin: round;stroke-width: 1.20405px"/>
      <line x1="1061.264" y1="920.943" x2="249.079" y2="920.943" style="fill: none;stroke: #20181f;stroke-linecap: round;stroke-linejoin: round;stroke-width: 1.20405px"/>
      <line x1="226.965" y1="920.943" x2="184.988" y2="920.943" style="fill: none;stroke: #20181f;stroke-linecap: round;stroke-linejoin: round;stroke-width: 1.20405px"/>
    </g>
  </g>
</svg>
