<svg xmlns="http://www.w3.org/2000/svg" viewBox="0 0 1920 1154.684">
  <g id="f352cc14-c14a-4e4c-8ca6-e187195cb7e5" data-name="OBJECTS">
    <path d="M1920,1027.578l-218.085,64.451a933.781,933.781,0,0,1-480.657,12.957L618.571,961.677A933.777,933.777,0,0,0,0,1027.578H0V-4.316H1920Z" style="fill: #5254cf"/>
    <g>
      <g>
        <path d="M1805.971,503.563c-39.662-28.576-87.188-42.4-130.943-63.1-42.081-19.906-72.025-51.889-109.674-78.244-61.521-43.065-132.627-75.355-204.993-95.062-73.175-19.928-162.563-30.964-229.265,13.206-32.807,21.725-59.507,55.419-70.386,93.47-12.945,45.276-.277,91.535,5.932,136.782,5.046,36.767-18.559,57.049-46.371,77.941-65.119,48.917-63.31,137.43-23.072,200.874H1835.28C1885.047,699.27,1906.932,576.307,1805.971,503.563Z" style="fill: #edf1f7"/>
        <circle cx="1001.382" cy="508.163" r="31.063" style="fill: #edf1f7"/>
        <circle cx="1736.938" cy="353.996" r="45.918" style="fill: #edf1f7"/>
        <circle cx="1006.968" cy="426.281" r="13.761" transform="translate(428.586 1354.275) rotate(-81.011)" style="fill: #edf1f7"/>
        <circle cx="1772.519" cy="433.91" r="13.761" transform="translate(-31.125 711.343) rotate(-22.5)" style="fill: #edf1f7"/>
        <path d="M969.277,787.3c-39.855-34-40.221-93.5-22.905-137.376,19.282-48.858,64.477-89.075,124-110.338q2.167-.771,4.338-1.527l.537,1.546q-2.166.751-4.326,1.52c-59.078,21.105-103.92,60.98-123.028,109.4-17.1,43.336-16.8,102.051,22.446,135.532Z" style="fill: #e4e6ea"/>
        <path d="M1808.123,789.2l-1.453-.747c29.433-57.216,46.868-114.916,50.418-166.861,3.5-51.211-6.661-93.451-29.379-122.151-20.617-26.045-61.64-53.006-140.01-33.536l-.392-1.587c79.207-19.678,120.768,7.686,141.684,34.108,22.975,29.024,33.254,71.653,29.727,123.278C1855.154,673.868,1837.659,731.787,1808.123,789.2Z" style="fill: #e4e6ea"/>
        <path d="M1152.859,331.794l-1.584-.4c.11-.43,2.8-10.677,11.782-24.225,8.276-12.479,23.685-30.15,50.094-43.46C1243.4,248.461,1281.464,242,1326.3,244.481c56.1,3.113,123,20.34,198.841,51.2l-.616,1.514c-75.671-30.794-142.395-47.981-198.315-51.084-44.55-2.474-82.334,3.938-112.318,19.05-26.09,13.148-41.3,30.589-49.469,42.9C1155.586,321.387,1152.885,331.692,1152.859,331.794Z" style="fill: #e4e6ea"/>
      </g>
      <g>
        <rect x="1124.683" y="332.998" width="605.41" height="432.142" rx="10.398" style="fill: #d3dfff"/>
        <g>
          <g>
            <rect x="1143.07" y="367.378" width="568.631" height="344.717" style="fill: #fff"/>
            <path d="M1712.519,712.912H1142.253V366.56h570.266Zm-568.631-1.635h567V368.2h-567Z" style="fill: #86a7ff"/>
          </g>
          <g>
            <rect x="1143.07" y="345.943" width="568.631" height="21.435" style="fill: #fff"/>
            <path d="M1712.519,368.2H1142.253v-23.07h570.266Zm-568.631-1.635h567v-19.8h-567Z" style="fill: #86a7ff"/>
          </g>
        </g>
        <g>
          <path d="M1169.8,361.612a4.952,4.952,0,1,1,4.952-4.951A4.957,4.957,0,0,1,1169.8,361.612Zm0-8.269a3.318,3.318,0,1,0,3.318,3.318A3.321,3.321,0,0,0,1169.8,353.343Z" style="fill: #86a7ff"/>
          <path d="M1186.338,361.612a4.952,4.952,0,1,1,4.952-4.951A4.957,4.957,0,0,1,1186.338,361.612Zm0-8.269a3.318,3.318,0,1,0,3.317,3.318A3.321,3.321,0,0,0,1186.338,353.343Z" style="fill: #86a7ff"/>
          <path d="M1202.877,361.612a4.952,4.952,0,1,1,4.951-4.951A4.957,4.957,0,0,1,1202.877,361.612Zm0-8.269a3.318,3.318,0,1,0,3.317,3.318A3.321,3.321,0,0,0,1202.877,353.343Z" style="fill: #86a7ff"/>
        </g>
        <g>
          <rect x="1094.831" y="758.65" width="665.109" height="30.844" style="fill: #d3dfff"/>
          <path d="M1760.859,790.413H1093.913V757.732h666.946Zm-665.11-1.836h663.274V759.568H1095.749Z" style="fill: #86a7ff"/>
        </g>
        <g>
          <rect x="1391.459" y="726.744" width="71.854" height="17.256" rx="8.628" style="fill: #fff"/>
          <path d="M1455.763,744.817h-56.754a8.376,8.376,0,0,1-8.367-8.367v-2.156a8.377,8.377,0,0,1,8.367-8.368h56.754a8.378,8.378,0,0,1,8.368,8.368v2.156A8.377,8.377,0,0,1,1455.763,744.817Zm-56.754-17.256a6.741,6.741,0,0,0-6.733,6.733v2.156a6.74,6.74,0,0,0,6.733,6.732h56.754a6.741,6.741,0,0,0,6.733-6.732v-2.156a6.741,6.741,0,0,0-6.733-6.733Z" style="fill: #86a7ff"/>
        </g>
        <g>
          <path d="M1631.092,519.361H1223.679a26.731,26.731,0,0,1-26.7-26.7v-1.784a26.732,26.732,0,0,1,26.7-26.7h407.413a26.732,26.732,0,0,1,26.7,26.7v1.784A26.731,26.731,0,0,1,1631.092,519.361Zm-407.413-53.552a25.1,25.1,0,0,0-25.066,25.067v1.784a25.094,25.094,0,0,0,25.066,25.066h407.413a25.1,25.1,0,0,0,25.067-25.066v-1.784a25.1,25.1,0,0,0-25.067-25.067Z" style="fill: #86a7ff"/>
          <rect x="1214.561" y="481.792" width="65.702" height="19.952" rx="9.976" style="fill: #d3dfff"/>
          <rect x="1300.474" y="481.792" width="59.721" height="19.952" rx="9.976" style="fill: #d3dfff"/>
          <rect x="1376.84" y="481.792" width="75.583" height="19.952" rx="9.976" style="fill: #d3dfff"/>
          <rect x="1475.983" y="481.683" width="103.782" height="19.952" rx="9.976" style="fill: #d3dfff"/>
        </g>
        <rect x="1358.721" y="422.739" width="137.33" height="14.38" style="fill: #86a7ff"/>
        <g>
          <rect x="1381.388" y="606.901" width="24.334" height="46.593" style="fill: #adc3ff"/>
          <rect x="1431.576" y="579.184" width="24.334" height="74.31" style="fill: #d3dfff"/>
          <rect x="1481.764" y="562.866" width="24.334" height="90.627" style="fill: #adc3ff"/>
          <rect x="1531.952" y="602.301" width="24.334" height="51.193" style="fill: #d3dfff"/>
          <rect x="1582.14" y="572.729" width="24.334" height="80.765" style="fill: #adc3ff"/>
          <rect x="1632.328" y="542.048" width="24.334" height="111.446" style="fill: #d3dfff"/>
        </g>
        <g>
          <rect x="1190.551" y="539.217" width="137.33" height="8.768" style="fill: #e5ecff"/>
          <rect x="1190.551" y="563.835" width="137.33" height="89.659" style="fill: #e5ecff"/>
          <g>
            <path d="M1265.438,597.162c-5.173-2.042-10.49-.437-14.286,3.273-3.458,3.381-3.946,8.16-5.574,12.426,3.364.918,6.388,2.91,10.053,2.339,4.763-.742,4.888-5.185,7.587-8.212a13.509,13.509,0,0,1,8.39-4.709A12.779,12.779,0,0,0,1265.438,597.162Z" style="fill: #86a7ff"/>
            <path d="M1304.333,592.512c-4.684,1.019-9.6,2.684-12.945,6.1-2.872,2.936-2.77,8.045-4.857,11.131,2.357,1.57,5.009,2.3,7.592.906,2.529-1.366,4.064-4.441,6.79-5.781a31.756,31.756,0,0,1,7.723-2.186c.549-.1,1.111-.161,1.667-.237v-10.9A59.169,59.169,0,0,0,1304.333,592.512Z" style="fill: #86a7ff"/>
            <path d="M1308.636,602.679a31.756,31.756,0,0,0-7.723,2.186c-2.726,1.34-4.261,4.415-6.79,5.781-2.583,1.4-5.235.664-7.592-.906a18.022,18.022,0,0,1-2.624-2.163c-3.223-3.177-4.231-4.973-9.329-5.384a13.75,13.75,0,0,0-2.97.086,13.509,13.509,0,0,0-8.39,4.709c-2.7,3.027-2.824,7.47-7.587,8.212-3.665.571-6.689-1.421-10.053-2.339a10.4,10.4,0,0,0-4.248-.359c-3.547.487-5.791,2.616-8.263,4.231a9.732,9.732,0,0,1-6.017,1.894c-5.5-.242-12.589-3.41-18.922-3.613V639.5H1310.3V602.442C1309.747,602.518,1309.185,602.581,1308.636,602.679Z" style="fill: #adc3ff"/>
            <path d="M1233.067,616.733a9.184,9.184,0,0,1-1.126-1.155c-2.53-3.138-2.733-7.124-5.533-10.068-5.449-5.73-12.892-3.463-18.28,1.411v8.093c6.333.2,13.424,3.371,18.922,3.613A9.732,9.732,0,0,0,1233.067,616.733Z" style="fill: #86a7ff"/>
          </g>
        </g>
      </g>
      <rect x="915.821" y="788.205" width="985.856" height="2.452" style="fill: #102048"/>
      <g>
        <g>
          <rect x="1114.433" y="699.857" width="67.44" height="39.238" style="fill: #1f3c88"/>
          <polygon points="1189.721 789.355 1225.655 807.406 1213.432 760.67 1197.626 757.633 1181.077 763.546 1189.721 789.355" style="fill: #102048"/>
          <path d="M1197.634,757.635l-7.913,31.717s-34.121-4.5-67.555-11.918c-15.417-3.4-30.687-7.439-42.393-11.951a71.746,71.746,0,0,1-15.042-7.472c-25.978-18.311-16.709-60.476,27.353-53.266,17.068,2.8,35.477,10.4,52.088,19.015,7.57,3.907,14.747,8.043,21.254,12.016A378.356,378.356,0,0,1,1197.634,757.635Z" style="fill: #3a6bea"/>
          <path d="M1165.426,735.776l-43.26,41.658c-15.417-3.4-30.687-7.439-42.393-11.951l64.4-41.723C1151.742,727.667,1158.919,731.8,1165.426,735.776Z" style="fill: #102048;opacity: 0.30000000000000004"/>
          <g>
            <polygon points="1076.462 763.367 1032.962 788.622 1096.978 788.356 1101.088 764.086 1076.462 763.367" style="fill: #102048"/>
            <polygon points="1114.569 757.794 1101.088 764.086 1096.978 788.356 1097.852 788.352 1124.635 788.711 1133.982 777.028 1114.569 757.794" style="fill: #f9b384"/>
          </g>
          <path d="M1114.569,757.794s51.049-49.97,95.268-61.834c41-11,53.206,30.2,30.2,50.69s-115.4,42.061-115.4,42.061Z" style="fill: #3a6bea"/>
          <path d="M1124.834,789.5l-.4-1.584c31.705-8.007,64.284-16.7,87.791-26.013l.6,1.52C1189.235,772.774,1156.594,781.483,1124.834,789.5Z" style="fill: #102048"/>
        </g>
        <g>
          <path d="M1145.416,561.229a24.8,24.8,0,0,0-12.746,4.224,21.646,21.646,0,0,0-7.207,8.991c-2.435,5.549-1.872,11.745-3.739,17.431-1.8,5.474-6.2,8.3-10.3,11.957-3.949,3.522-6.79,9.348-5.382,14.7a11,11,0,0,0,2.069,4.058c.733.917,2.971,3.562,4.232,3.567l69.433.308s12.9-12.085-1.946-26.217c-4.121-3.922-8.737-7.954-10.833-13.463-1.3-3.4-1.944-6.991-2.919-10.485a23.088,23.088,0,0,0-7.683-11.83C1154.667,561.619,1150,560.854,1145.416,561.229Z" style="fill: #102048"/>
          <path d="M1139.579,565.427s-11.572-8.807-.1-12.8c8.773-3.054,17,.41,11.779,11.777Z" style="fill: #102048"/>
        </g>
        <g>
          <path d="M1142.61,609.59s-65.249,11.054-78.191,56.082,65.818,47.946,65.818,47.946,77.353-2.649,91.1-15.052,20.761-75.225-71.181-88.437Z" style="fill: #eb5d60"/>
          <path d="M1146.816,634.216c-.423,0-.844-.018-1.264-.051a12.42,12.42,0,0,1-10.456-6.826l1.456-.744a10.832,10.832,0,0,0,9.132,5.94c5.026.423,10.445-1.913,13.188-5.643l1.316.968C1157.359,631.709,1152,634.216,1146.816,634.216Z" style="fill: #ab4446"/>
          <rect x="1103.295" y="654.106" width="1.635" height="43.886" transform="translate(-115.75 1109.686) rotate(-51.048)" style="fill: #ab4446"/>
          <rect x="1169.031" y="675.572" width="41.148" height="1.634" transform="translate(-152.514 943.556) rotate(-40.88)" style="fill: #ab4446"/>
        </g>
        <rect x="1108.115" y="661" width="76.183" height="55.631" rx="11.493" style="fill: #fff"/>
        <g>
          <path d="M1139.03,595.644l-1.774,16.894a9.707,9.707,0,0,0,3.408,8.48h0a9.086,9.086,0,0,0,11.575.074l.156-.126a9.709,9.709,0,0,0,3.47-8.8l-2.193-16.822Z" style="fill: #f9b384"/>
          <path d="M1138.708,599.12c5.172,10.138,11.009,10.343,15.464.256l-9.166-1.178Z" style="fill: #102048"/>
          <ellipse cx="1146.575" cy="586.626" rx="12.364" ry="16.18" style="fill: #f9b384"/>
          <path d="M1160.982,583.963s-12.391-.2-16.488-10.241c0,0-6.656,2.356-8.4,10.958l-4.711,1.639-.1-13.518,10.445-6.657,9.319.205,8.193,6.861Z" style="fill: #102048"/>
          <path d="M1137.832,585.324c1.38,2.661.667,5.768-1.592,6.939s-5.21-.035-6.59-2.7-.667-5.768,1.593-6.94S1136.452,582.663,1137.832,585.324Z" style="fill: #f9b384"/>
          <path d="M1155.764,585.324c-1.38,2.661-.667,5.768,1.593,6.939s5.209-.035,6.589-2.7.668-5.768-1.592-6.94S1157.144,582.663,1155.764,585.324Z" style="fill: #f9b384"/>
        </g>
      </g>
    </g>
  </g>
</svg>
