<svg xmlns="http://www.w3.org/2000/svg" viewBox="0 0 1489.848 1079">
  <g id="aa194896-7903-4226-a115-185d1f9db3f3" data-name="OBJECTS">
    <g>
      <g>
        <g>
          <path d="M583.145,222.665a17.77,17.77,0,0,0-26.067-7.633A17.726,17.726,0,0,0,528.13,210.4a29.7,29.7,0,0,0-45.66.933,17.715,17.715,0,0,0-13.663-6.5c-.2,0-.381.052-.578.059a40.518,40.518,0,0,0-73.518,1.4,17.8,17.8,0,0,0-24.426,12.522,17.67,17.67,0,0,0-24.435,3.856Z" style="fill: #edf1f7"/>
          <path d="M1059.764,293.544a14.926,14.926,0,0,1,21.9-6.411,14.889,14.889,0,0,1,24.315-3.889,24.943,24.943,0,0,1,38.353.783,14.876,14.876,0,0,1,11.476-5.46c.166,0,.32.043.485.049a34.034,34.034,0,0,1,61.752,1.171,14.95,14.95,0,0,1,20.516,10.519,14.843,14.843,0,0,1,20.525,3.238Z" style="fill: #edf1f7"/>
        </g>
        <g>
          <g>
            <g>
              <g>
                <path d="M1079.94,810.357c-31.016-5.463-64.586-95.87-6.824-126.161s77.237-46.343,89.309-116.9,53.141-37.064,43.888,4.23,52.411,36.163,65.278,55.86c22.3,34.129-27.017,39.582-55.255,59.008s22.158,32.72,2.115,65.592S1132.83,819.673,1079.94,810.357Z" style="fill: #5254cf"/>
                <g>
                  <path d="M1076.766,809.5c29.027-47.223,57.64-95.333,90.374-140.112l6.693-8.879-6.459,9.047c-31.6,45.419-60.43,93.625-90.608,139.944Z" style="fill: #fff"/>
                  <path d="M1108.787,758.255c24.921-6.6,50.319-12.5,75.6-17.559-24.92,6.6-50.321,12.5-75.6,17.559Z" style="fill: #fff"/>
                  <path d="M1139.515,710.185a426.778,426.778,0,0,1,1.552-45.288,427.043,427.043,0,0,1-1.552,45.288Z" style="fill: #fff"/>
                </g>
              </g>
              <g>
                <path d="M1089.625,855.684s-17.4-33.972,12.313-55.748,42.858-49.764,25.908-75.483-60.467-9.687-78.865-21.983-10.489-38.61-25.574-67.069c-20.219-38.141-59.348-28.071-68.5-22.186S929.52,637.1,950.759,671.7s5.585,46.736-11.319,73.895,12.72,37.718,60.807,46.89,56.391,68.237,56.391,68.237l32.987-5.04" style="fill: #86a7ff"/>
                <g>
                  <path d="M1077.4,889.825c-.085-50.568-13.338-100.64-33.889-146.613a404.685,404.685,0,0,0-47.92-79.038c-4.758-6.235-10.934-13.6-16.035-19.559,6.315,7.023,13.3,15.09,19.156,22.472a374.9,374.9,0,0,1,61.57,114.823c11.168,34.749,18.216,71.324,17.118,107.915Z" style="fill: #fff"/>
                  <path d="M1057.063,779.349c-20.069-22.327-51.139-31.467-80.448-31.583-3.744-.084-8.982.148-12.761.326,4.232-.535,8.484-.925,12.749-1.107,29.5-1.135,61.716,8.427,80.46,32.364Z" style="fill: #fff"/>
                  <path d="M1064.417,800.488c-6.665-27.778,3.785-55.973,30.745-67.921a79.416,79.416,0,0,1,10.829-3.916,95.682,95.682,0,0,0-10.487,4.617c-25.9,12.847-35.563,39.662-31.087,67.22Z" style="fill: #fff"/>
                </g>
              </g>
              <g>
                <path d="M1193.77,838.135c55.082,13.93,56.413-34.07,22.666-60.835-21.094-16.731,21.971-25.66,38.648-41.926,28.658-27.952-17.3-63.086-41.138-38.605s-38.621,32-55.987,34.14-66.377,2.667-62.149,33.845c2.635,19.431-14.165,36.028-11.871,55.5C1134.875,803.021,1165.072,830.877,1193.77,838.135Z" style="fill: #3a6bea"/>
                <g>
                  <path d="M1083.939,820.256c20.921-16.238,42.742-31.279,64.95-45.7,22.354-14.185,45.2-27.723,69.263-38.814-46.957,24.437-90.926,54.15-134.213,84.512Z" style="fill: #fff"/>
                  <path d="M1140.52,780.871a300.707,300.707,0,0,1,6.911-42.458,300.586,300.586,0,0,1-6.911,42.458Z" style="fill: #fff"/>
                  <path d="M1125.435,790.916c25.966-.937,52.258-.868,78.218.231-25.966.945-52.258.859-78.218-.231Z" style="fill: #fff"/>
                </g>
              </g>
            </g>
            <g>
              <polygon points="1142.583 909.942 1061.979 909.942 1043.217 829.378 1161.346 829.378 1142.583 909.942" style="fill: #102048"/>
              <rect x="1030.602" y="808.864" width="143.358" height="32.43" style="fill: #5254cf"/>
            </g>
          </g>
          <g>
            <g style="opacity: 0.74">
              <path d="M352.868,818.855c5.737-14.218,19.53-18.519,26.283-31.354,12.085-22.971-8.241-28.893-10.655-44.159-3.215-20.324,11.051-18.494,18.417-30.871,8.661-14.553-6-31.77,2.993-45.59,22.348-34.352,58.72,3.386,82.42,11.324,14.521,4.864,36.243,6.906,47.668-2.328,15.089-12.2,30.128-40.447,14.151-56.757-22.515-22.984-14.26-34.757,10.084-40.574,10.779-2.576,15.714-10.789,3.753-20.17,18.177,26.267-42.45,2.345-53.239,20.17-7.492,12.378,1.75,19.689,4.355,29.2,6.668,24.349-10.062,45.3-44.957,20.918-20.064-14.019-18.373-38.989-39.653-45.349-19.89-5.944-43.014,11.873-50.329,35.775-7.24,23.657-15.83,35.788-41.328,33.1-30.292-3.2-53.654,15.574-40.105,42.685,12.01,24.034,45.28,10.379,62.151,24.157,18.724,15.291,12.9,36.352-11.33,56.108-7.524,6.136-19.093,15.292-16.111,25.744,1.934,6.779,14.025,17.542,21.812,17.824Z" style="fill: #fff"/>
            </g>
            <path d="M397.71,828.329h-6.474v-8.755a6.751,6.751,0,0,0-6.751-6.752H307.82a6.752,6.752,0,0,0-6.752,6.752v53.612a36.756,36.756,0,0,0,36.756,36.756H354.48A36.743,36.743,0,0,0,389.223,885.1h8.487a11.742,11.742,0,0,0,11.742-11.742V840.07A11.742,11.742,0,0,0,397.71,828.329Zm4.236,45.03a4.243,4.243,0,0,1-4.236,4.237h-6.763a36.89,36.89,0,0,0,.289-4.41V835.834h6.474a4.242,4.242,0,0,1,4.236,4.236Z" style="fill: #373daa"/>
            <path d="M381.393,831.861a49.511,49.511,0,0,0-3.885-19.039H307.82a6.752,6.752,0,0,0-6.752,6.752v53.612a36.566,36.566,0,0,0,4.65,17.871c1.056.038,2.093.131,3.16.131C348.927,891.188,381.393,864.627,381.393,831.861Z" style="fill: #5254cf"/>
          </g>
          <g>
            <circle cx="1061.165" cy="404.862" r="68.896" style="fill: #102048"/>
            <circle cx="1061.165" cy="404.862" r="53.72" style="fill: #fff"/>
            <g>
              <line x1="1061.165" y1="404.862" x2="1061.165" y2="372.561" style="fill: none;stroke: #4b4583;stroke-linecap: round;stroke-linejoin: round;stroke-width: 0.9781569999999999px"/>
              <line x1="1061.165" y1="404.862" x2="1080.912" y2="424.609" style="fill: none;stroke: #4b4583;stroke-linecap: round;stroke-linejoin: round;stroke-width: 0.9781569999999999px"/>
            </g>
            <g>
              <line x1="1061.162" y1="452.506" x2="1061.162" y2="446.129" style="fill: none;stroke: #4b4583;stroke-linecap: round;stroke-linejoin: round;stroke-width: 0.684276px"/>
              <line x1="1084.979" y1="446.129" x2="1081.791" y2="440.597" style="fill: none;stroke: #4b4583;stroke-linecap: round;stroke-linejoin: round;stroke-width: 0.684276px"/>
              <line x1="1102.419" y1="428.688" x2="1096.888" y2="425.5" style="fill: none;stroke: #4b4583;stroke-linecap: round;stroke-linejoin: round;stroke-width: 0.684276px"/>
              <line x1="1108.83" y1="404.871" x2="1102.419" y2="404.871" style="fill: none;stroke: #4b4583;stroke-linecap: round;stroke-linejoin: round;stroke-width: 0.684276px"/>
              <line x1="1102.419" y1="381.053" x2="1096.921" y2="384.242" style="fill: none;stroke: #4b4583;stroke-linecap: round;stroke-linejoin: round;stroke-width: 0.684276px"/>
              <line x1="1084.979" y1="363.613" x2="1081.791" y2="369.112" style="fill: none;stroke: #4b4583;stroke-linecap: round;stroke-linejoin: round;stroke-width: 0.684276px"/>
              <line x1="1061.162" y1="363.613" x2="1061.162" y2="357.203" style="fill: none;stroke: #4b4583;stroke-linecap: round;stroke-linejoin: round;stroke-width: 0.684276px"/>
              <line x1="1040.533" y1="369.144" x2="1037.344" y2="363.613" style="fill: none;stroke: #4b4583;stroke-linecap: round;stroke-linejoin: round;stroke-width: 0.684276px"/>
              <line x1="1025.403" y1="384.242" x2="1019.904" y2="381.053" style="fill: none;stroke: #4b4583;stroke-linecap: round;stroke-linejoin: round;stroke-width: 0.684276px"/>
              <line x1="1019.904" y1="404.871" x2="1013.527" y2="404.871" style="fill: none;stroke: #4b4583;stroke-linecap: round;stroke-linejoin: round;stroke-width: 0.684276px"/>
              <line x1="1025.436" y1="425.5" x2="1019.904" y2="428.688" style="fill: none;stroke: #4b4583;stroke-linecap: round;stroke-linejoin: round;stroke-width: 0.684276px"/>
              <line x1="1040.533" y1="440.597" x2="1037.344" y2="446.129" style="fill: none;stroke: #4b4583;stroke-linecap: round;stroke-linejoin: round;stroke-width: 0.684276px"/>
            </g>
            <circle cx="1061.165" cy="404.862" r="3.118" style="fill: #4b4583"/>
          </g>
          <g>
            <path d="M562,330.746a74.235,74.235,0,0,0-105.928.961c-26.538,27.5-27.694,71.556-2.526,100.312a74.245,74.245,0,0,0,94.2,14.844,11,11,0,0,1,8.807-1.064l18.771,5.586a1.878,1.878,0,0,0,2.336-2.336l-5.587-18.772a11.038,11.038,0,0,1,1.08-8.832A74.242,74.242,0,0,0,562,330.746Z" style="fill: #3a6bea"/>
            <g>
              <line x1="467.494" y1="350.759" x2="551.627" y2="350.759" style="fill: none;stroke: #fff;stroke-linecap: round;stroke-linejoin: round;stroke-width: 1.6652600000000002px"/>
              <line x1="531.45" y1="372.407" x2="551.627" y2="372.407" style="fill: none;stroke: #fff;stroke-linecap: round;stroke-linejoin: round;stroke-width: 1.6652600000000002px"/>
              <line x1="467.494" y1="372.407" x2="511.405" y2="372.407" style="fill: none;stroke: #fff;stroke-linecap: round;stroke-linejoin: round;stroke-width: 1.6652600000000002px"/>
              <line x1="505.963" y1="394.055" x2="551.627" y2="394.055" style="fill: none;stroke: #fff;stroke-linecap: round;stroke-linejoin: round;stroke-width: 1.6652600000000002px"/>
              <line x1="467.494" y1="394.055" x2="489.452" y2="394.055" style="fill: none;stroke: #fff;stroke-linecap: round;stroke-linejoin: round;stroke-width: 1.6652600000000002px"/>
              <line x1="531.449" y1="415.703" x2="551.627" y2="415.703" style="fill: none;stroke: #fff;stroke-linecap: round;stroke-linejoin: round;stroke-width: 1.6652600000000002px"/>
              <line x1="467.494" y1="415.703" x2="510.418" y2="415.703" style="fill: none;stroke: #fff;stroke-linecap: round;stroke-linejoin: round;stroke-width: 1.6652600000000002px"/>
            </g>
          </g>
          <g>
            <g>
              <path d="M697.642,409.7s-7.505-33.148,24.391-61.6,81.186-25.864,108.213-11.023c35.023,19.231,69.407,70.125,37.979,142.83S980.8,522.592,932.487,621.1s-131.807,30.489-161.827,71.3S636.72,626.211,725.5,551.418,704.365,476.937,697.642,409.7Z" style="fill: #102048"/>
              <path d="M709.156,582.987c-36.44,15.531-66.612,107.878-69.426,304.886h78.533S765.975,558.769,709.156,582.987Z" style="fill: #373daa"/>
              <path d="M806.586,553.621c43.07-4.252,113.274,2.9,138.506,30.766,5.565,6.146,5.6,17.663,2.611,33.592-10.541,56.287-58.693,167.677-33.1,291.963H690.389s21.264-97.12,9.381-127.765c-13.586-35.038-25.345-66.7-11.968-95.971,30.461-66.639,3.182-94.226,22.482-103.86C736.845,569.088,770.156,557.217,806.586,553.621Z" style="fill: #5254cf"/>
              <path d="M899.123,718.54c-9.381,54.412-72.392,61.135-103.976,50.5,0,0,45.969,27.831,79.116,12.2,0,0,8.443,26.58-4.182,110.168h41.228s-.01-.167-.024-.426c-6.526-43.723-4.478-85.546,1.213-123.552a175.337,175.337,0,0,1,4.4-25.441c.022-.079.041-.153.062-.231,5.225-26.652,11.762-51.009,17.628-72.278a237.614,237.614,0,0,0,3.463-42.876S908.505,664.129,899.123,718.54Z" style="fill: #373daa"/>
              <path d="M901.471,835.338s-39.163,48.106-58.1,35.077c-25.081-17.253-45.719-16.94-62.293-7.043-17.193,10.268-23.766,28.035-23.766,28.035H891.737l39.126-33.861Z" style="fill: #f4ae98"/>
              <path d="M946.565,586.369s34.561,90.27,64.2,164.068c23.922,59.571-120.335,140.751-120.335,140.751L866.6,859.26l83.08-92.093L898.869,660.023s-29.456-58.44,15.265-79.154C939.014,569.345,946.565,586.369,946.565,586.369Z" style="fill: #5254cf"/>
              <path d="M836.076,465.714s-5.435,68.433,10.981,86.308c21.108,22.984-15.948,72.549-71.611,110.074,0,0-31.114-34.555-6.723-90.842s.752-88.079.752-88.079Z" style="fill: #f4ae98"/>
              <path d="M847.057,436.163c0,46.889-33.033,84.86-60.943,84.86s-62.782-31.183-67.473-88.878c-3.8-46.736,21.382-80.883,59.463-80.883S847.057,389.273,847.057,436.163Z" style="fill: #ffb99f"/>
              <path d="M730.755,340.282c-3.92,2.262-12.416,7.766-22.313,14.355-10.782,7.179-22.275,19.609-26.227,33.212-6.786,23.358,10.4,52.951,44.59,42.5s50.529-65.3,78.27-33.59c34.477,39.4,46.985,17.441,46.985,17.441s-6.912-49.057-41.85-71.136C791.49,331.235,763.278,321.519,730.755,340.282Z" style="fill: #102048"/>
              <g>
                <path d="M870.081,419.278c0,15.3-9.041,27.7-20.2,27.7s-20.195-12.4-20.195-27.7,9.041-27.7,20.195-27.7S870.081,403.982,870.081,419.278Z" style="fill: #eb5d60"/>
                <path d="M786.329,326.96c-31.065-5.982-61.019,5.758-77.887,27.677,18.611-12.714,42.993-18.252,67.991-13.438,41.262,7.946,70.49,41.458,71.459,78.667a66.63,66.63,0,0,0,1.9-7.44C857.3,373.421,828.889,335.156,786.329,326.96Z" style="fill: #eb5d60"/>
                <g>
                  <path d="M845.494,428.318s5.628,62.6-51.911,68.537" style="fill: none;stroke: #eb5d60;stroke-miterlimit: 10"/>
                  <path d="M789.831,503.109h-9.069a5.316,5.316,0,0,1-5.316-5.316h0a5.316,5.316,0,0,1,5.316-5.316h9.069a5.316,5.316,0,0,1,5.316,5.316h0A5.316,5.316,0,0,1,789.831,503.109Z" style="fill: #eb5d60"/>
                </g>
              </g>
            </g>
            <g>
              <rect x="589.425" y="891.188" width="343.092" height="18.754" rx="8.263" style="fill: #102048"/>
              <path d="M773.289,909.942H471.69a19.5,19.5,0,0,1-18.32-12.828L383.044,703.9a19.5,19.5,0,0,1,18.32-26.164h301.6a19.5,19.5,0,0,1,18.32,12.828l70.326,193.22A19.5,19.5,0,0,1,773.289,909.942Z" style="fill: #2e528e"/>
              <path d="M394.405,679.007c1.135,114.2,154.077,206.568,342.6,206.568,18.482,0,36.616-.9,54.3-2.608l-70.03-192.408a19.5,19.5,0,0,0-18.32-12.828h-301.6A19.476,19.476,0,0,0,394.405,679.007Z" style="fill: #3b65a3"/>
              <path d="M605.644,790a22.828,22.828,0,1,1-22.827-22.828A22.827,22.827,0,0,1,605.644,790Z" style="fill: #102048"/>
            </g>
          </g>
          <g>
            <path d="M932.792,184.594a53.848,53.848,0,1,1,10.343,84.227,7.973,7.973,0,0,0-6.389-.772L923.131,272.1a1.363,1.363,0,0,1-1.695-1.695l4.052-13.616a8,8,0,0,0-.783-6.406A53.855,53.855,0,0,1,932.792,184.594Z" style="fill: #3a6bea"/>
            <g>
              <circle cx="940.961" cy="222.665" r="8.693" style="fill: #fff"/>
              <circle cx="970.828" cy="222.665" r="8.693" style="fill: #fff"/>
              <circle cx="1000.696" cy="222.665" r="8.693" style="fill: #fff"/>
            </g>
          </g>
        </g>
        <g style="opacity: 0.07">
          <g>
            <line x1="1160.7" y1="183.002" x2="1168.388" y2="190.69" style="fill: none;stroke: #4b4583;stroke-linecap: round;stroke-linejoin: round"/>
            <line x1="1168.388" y1="183.002" x2="1160.7" y2="190.69" style="fill: none;stroke: #4b4583;stroke-linecap: round;stroke-linejoin: round"/>
          </g>
          <g>
            <line x1="201.757" y1="592.988" x2="217.132" y2="608.363" style="fill: none;stroke: #4b4583;stroke-linecap: round;stroke-linejoin: round;stroke-width: 2px"/>
            <line x1="217.132" y1="592.988" x2="201.757" y2="608.363" style="fill: none;stroke: #4b4583;stroke-linecap: round;stroke-linejoin: round;stroke-width: 2px"/>
          </g>
          <g>
            <line x1="625.892" y1="503.109" x2="636.639" y2="513.856" style="fill: none;stroke: #4b4583;stroke-linecap: round;stroke-linejoin: round;stroke-width: 1.39795px"/>
            <line x1="636.639" y1="503.109" x2="625.892" y2="513.856" style="fill: none;stroke: #4b4583;stroke-linecap: round;stroke-linejoin: round;stroke-width: 1.39795px"/>
          </g>
          <g>
            <line x1="1233.011" y1="879.727" x2="1243.758" y2="890.474" style="fill: none;stroke: #4b4583;stroke-linecap: round;stroke-linejoin: round;stroke-width: 1.39795px"/>
            <line x1="1243.758" y1="879.727" x2="1233.011" y2="890.474" style="fill: none;stroke: #4b4583;stroke-linecap: round;stroke-linejoin: round;stroke-width: 1.39795px"/>
          </g>
          <path d="M812.814,222.665a6.589,6.589,0,1,1-6.589-6.589A6.589,6.589,0,0,1,812.814,222.665Z" style="fill: none;stroke: #4b4583;stroke-linecap: round;stroke-linejoin: round;stroke-width: 1.39795px"/>
          <path d="M445.58,492.478a6.589,6.589,0,1,1-6.589-6.59A6.589,6.589,0,0,1,445.58,492.478Z" style="fill: none;stroke: #4b4583;stroke-linecap: round;stroke-linejoin: round;stroke-width: 1.39795px"/>
          <path d="M1244.974,409.114a6.589,6.589,0,1,1-6.589-6.589A6.589,6.589,0,0,1,1244.974,409.114Z" style="fill: none;stroke: #4b4583;stroke-linecap: round;stroke-linejoin: round;stroke-width: 1.39795px"/>
          <path d="M236.364,779.349a15.627,15.627,0,1,1-15.626-15.627A15.627,15.627,0,0,1,236.364,779.349Z" style="fill: none;stroke: #4b4583;stroke-linecap: round;stroke-linejoin: round;stroke-width: 1.39795px"/>
        </g>
      </g>
      <line x1="1288.091" y1="910.178" x2="1174.923" y2="910.178" style="fill: none;stroke: #20181f;stroke-linecap: round;stroke-linejoin: round;stroke-width: 1.20405px"/>
      <line x1="1158.41" y1="910.178" x2="346.226" y2="910.178" style="fill: none;stroke: #20181f;stroke-linecap: round;stroke-linejoin: round;stroke-width: 1.20405px"/>
      <line x1="324.111" y1="910.178" x2="282.134" y2="910.178" style="fill: none;stroke: #20181f;stroke-linecap: round;stroke-linejoin: round;stroke-width: 1.20405px"/>
    </g>
  </g>
</svg>
