<svg xmlns="http://www.w3.org/2000/svg" viewBox="0 0 1348 1079">
  <g id="a60f11b9-ffc4-4053-a57a-4748bb2167a3" data-name="OBJECTS">
    <g>
      <path d="M1135.6,722.068c20.539-100.82,13.12-194-39.508-282.7-37.494-63.2-102.624-115.989-177.12-117.381-70.271-1.313-133.523,41.9-202.949,52.824-114.2,17.977-232.246-52.684-343.169-20.383C313.5,371.713,265.231,417.711,237.972,472.352s-34.981,117.18-30.691,177.825c7.625,107.776,55.98,214.958,138.579,284.685h672.825C1075.2,870.144,1122.317,787.283,1135.6,722.068Z" style="fill: #edf1f7"/>
      <g>
        <rect x="521.264" y="817.748" width="63.075" height="23.051" rx="5.209" style="fill: #e0e0ff"/>
        <rect x="592.834" y="817.748" width="63.075" height="23.051" rx="5.209" style="fill: #e0e0ff"/>
        <rect x="556.538" y="786.053" width="63.075" height="23.05" rx="5.209" style="fill: #e0e0ff"/>
      </g>
      <g>
        <g>
          <g>
            <g>
              <path d="M920.2,268.749a14.343,14.343,0,0,0-14.343-14.343H428.445A14.343,14.343,0,0,0,414.1,268.749v11.759H920.2Z" style="fill: #fff"/>
              <path d="M920.962,281.267H413.343V268.749a15.119,15.119,0,0,1,15.1-15.1H905.86a15.119,15.119,0,0,1,15.1,15.1Zm-506.1-1.517H919.445v-11a13.6,13.6,0,0,0-13.585-13.585H428.445a13.6,13.6,0,0,0-13.585,13.585Z" style="fill: #86a7ff"/>
            </g>
            <g>
              <path d="M414.1,280.508V585.074a14.344,14.344,0,0,0,14.343,14.344H905.86A14.344,14.344,0,0,0,920.2,585.074V280.508Z" style="fill: #fff"/>
              <path d="M905.86,600.176H428.445a15.119,15.119,0,0,1-15.1-15.1V279.75H920.962V585.075A15.119,15.119,0,0,1,905.86,600.176Zm-491-318.909V585.075a13.6,13.6,0,0,0,13.585,13.584H905.86a13.6,13.6,0,0,0,13.585-13.584V281.267Z" style="fill: #86a7ff"/>
            </g>
            <g>
              <g>
                <circle cx="438.64" cy="267.457" r="5.112" transform="translate(-22.247 40.473) rotate(-5.152)" style="fill: #fff"/>
                <path d="M438.64,273.336a5.879,5.879,0,1,1,5.879-5.879A5.885,5.885,0,0,1,438.64,273.336Zm0-10.224a4.345,4.345,0,1,0,4.345,4.345A4.35,4.35,0,0,0,438.64,263.112Z" style="fill: #5254cf"/>
              </g>
              <g>
                <circle cx="458.577" cy="267.457" r="5.112" transform="matrix(0.996, -0.09, 0.09, 0.996, -22.166, 42.264)" style="fill: #fff"/>
                <path d="M458.577,273.336a5.879,5.879,0,1,1,5.879-5.879A5.885,5.885,0,0,1,458.577,273.336Zm0-10.224a4.345,4.345,0,1,0,4.346,4.345A4.35,4.35,0,0,0,458.577,263.112Z" style="fill: #5254cf"/>
              </g>
              <g>
                <circle cx="478.515" cy="267.457" r="5.112" transform="matrix(0.996, -0.09, 0.09, 0.996, -22.086, 44.054)" style="fill: #fff"/>
                <path d="M478.515,273.336a5.879,5.879,0,1,1,5.879-5.879A5.885,5.885,0,0,1,478.515,273.336Zm0-10.224a4.345,4.345,0,1,0,4.345,4.345A4.35,4.35,0,0,0,478.515,263.112Z" style="fill: #5254cf"/>
              </g>
            </g>
          </g>
          <rect x="466.85" y="313.718" width="400.605" height="240.484" style="fill: #d3dfff"/>
        </g>
        <g>
          <path d="M739.97,598.545H609.181c-4.831-45.166-6.073-85.654-1.748-112.57a90.856,90.856,0,0,1,4.8-18.787l55.073-11.211,64.029,5.736C742.1,489.564,743.788,539.638,739.97,598.545Z" style="fill: #ffb147"/>
          <rect x="670.603" y="468.507" width="1.534" height="52.144" style="fill: #1b1b43"/>
          <path d="M731.335,461.713s-51.561,36.163-123.9,24.262a90.856,90.856,0,0,1,4.8-18.787l55.073-11.211Z" style="fill: #1b1b43;opacity: 0.2"/>
          <path d="M641.343,257.327S616.505,289,622.485,315.91l87.255-3.641s.747-52.7-18.314-57.184Z" style="fill: #1b1b43"/>
          <path d="M716.485,309.137h-1.534c0-34.523-17.956-50.385-18.137-50.541l1-1.162C698,257.6,716.485,273.919,716.485,309.137Z" style="fill: #1b1b43"/>
          <g>
            <path d="M620.1,437.267A32.691,32.691,0,0,1,599.749,466.5a30.473,30.473,0,0,1-6.5,1.841,86.108,86.108,0,0,1-14.523,1.1c-28.219,0-48.709-21.433-51.132-27.966-2.423-6.549,4.409-4.218,4.409-4.218,2.493-5.559,8.044-1.081,8.044-1.081,1.672-5.8,6.917-.383,6.917-.383s.184-3.175,3.175-2.991c1.84.123,7.867,3.788,12.223,6.579a13.8,13.8,0,0,0,7.423,2.163,13.393,13.393,0,0,0,3.113-.353,13.785,13.785,0,0,0,10.459-10.935l8.451-46.04h20l6.411,8.221C620.729,402.576,620.576,423.342,620.1,437.267Z" style="fill: #ffbc96"/>
            <path d="M618.076,447.588a32.418,32.418,0,0,1-18.327,18.91,14.336,14.336,0,0,1,18.327-18.91Z" style="fill: #fe5b52;opacity: 0.4"/>
            <path d="M663.318,296.015,622.192,304.4a38.737,38.737,0,0,0-30.164,29.94l-11.185,52.875,37.375,5.233Z" style="fill: #5254cf"/>
            <path d="M677.645,296.015l41.126,8.381a38.737,38.737,0,0,1,30.164,29.94l5.08,37.551-36.254,6.354Z" style="fill: #5254cf"/>
            <path d="M618.218,392.444s-1.993,60.3-5.98,74.751c0,0,55.814,19.435,119.1-5.482l-4.984-111.13-48.712-54.568H663.318l-48.588,63.04Z" style="fill: #5254cf"/>
            <path d="M801.852,297.506c.23,3.942-6.257,15.873-11.241,24.416A53.012,53.012,0,0,0,783.74,342.4c-6.426,53.984-10.674,99.15-29.461,111.8A21.576,21.576,0,0,1,738.7,457.48a19.851,19.851,0,0,1-10.751-4.923c-19.784-17.606-10.183-74.32-10.183-74.32L742.3,374s5.49-46.346,8.972-62.3,8.972-7.469,8.972-7.469c1.993-4.984,7.468-1.994,7.468-1.994,3.988-6.472,8.972-1.5,8.972-1.5,2.991-5.966,11.472,4.494,11.472,4.494C793.632,302.736,801.361,289.225,801.852,297.506Z" style="fill: #ffbc96"/>
            <rect x="594.102" y="366.382" width="50.647" height="1.534" transform="translate(223.158 968.363) rotate(-87.267)" style="fill: #1b1b43"/>
            <polygon points="717.062 379.14 713.931 338.846 715.46 338.727 718.46 377.342 742.174 373.25 742.435 374.761 717.062 379.14" style="fill: #1b1b43"/>
            <rect x="699.755" y="372.782" width="85.604" height="1.534" transform="translate(274.762 1060.643) rotate(-82.457)" style="fill: #d28572"/>
            <path d="M754.279,454.2A21.576,21.576,0,0,1,738.7,457.48a19.851,19.851,0,0,1-10.751-4.923,14.317,14.317,0,0,1,26.333,1.641Z" style="fill: #fe5b52;opacity: 0.4"/>
            <g>
              <rect x="760.187" y="304.185" width="1.534" height="9.288" transform="translate(-38.242 119.852) rotate(-8.786)" style="fill: #d28572"/>
              <rect x="768.622" y="302.086" width="1.534" height="9.46" transform="translate(-57.325 255.445) rotate(-18.185)" style="fill: #d28572"/>
              <rect x="777.632" y="299.734" width="1.534" height="9.946" transform="translate(-57.109 278.691) rotate(-19.595)" style="fill: #d28572"/>
            </g>
            <rect x="685.365" y="335.656" width="17.829" height="5.559" rx="1.256" style="fill: #cbcbff"/>
            <path d="M669.23,323.9a29.232,29.232,0,0,1-17.928-6.521l1.027-1.139c.63.566,15.615,13.708,33.787-.042l.925,1.223C680.623,322.274,674.517,323.9,669.23,323.9Z" style="fill: #1b1b43"/>
            <g>
              <path d="M556.261,443.917c-3.265-1.27-6.814-3.992-10.264-7.873l1.146-1.02c3.289,3.7,6.634,6.282,9.674,7.464Z" style="fill: #d28572"/>
              <path d="M547.5,446.151c-3.136-1.981-5.918-5.207-8.5-9.861l1.341-.745c2.458,4.424,5.069,7.469,7.982,9.309Z" style="fill: #d28572"/>
              <path d="M541.32,448.993A44.171,44.171,0,0,1,530.78,437.1l1.291-.828a42.714,42.714,0,0,0,10.164,11.493Z" style="fill: #d28572"/>
            </g>
          </g>
          <g>
            <path d="M653.61,272.1h31.146a0,0,0,0,1,0,0v34.823a7.038,7.038,0,0,1-7.038,7.038h-17.07a7.038,7.038,0,0,1-7.038-7.038V272.1a0,0,0,0,1,0,0Z" style="fill: #ffbc96"/>
            <path d="M653.605,274.757c9.629,16.181,19.963,17.51,31.184.128Z" style="fill: #d28572"/>
            <path d="M647.579,223.391h43.208a0,0,0,0,1,0,0v48.284a9.763,9.763,0,0,1-9.763,9.763H657.342a9.763,9.763,0,0,1-9.763-9.763V223.391a0,0,0,0,1,0,0Z" style="fill: #ffbc96"/>
            <path d="M668.771,260.381c-2.526-2.385-3.476-4.271-2.9-5.764.549-1.433,2.3-1.889,3.341-2.034l-.054-4.711,1.534-.017.07,6.176-.756.018c-.75.022-2.4.324-2.7,1.118-.145.379-.187,1.537,2.525,4.1Z" style="fill: #1b1b43"/>
            <g>
              <path d="M676.859,265.083a14.891,14.891,0,0,0,1.409-2.705c-5.233.436-16.321.436-16.321.436a10.2,10.2,0,0,0,1.242,2.731A83.736,83.736,0,0,0,676.859,265.083Z" style="fill: #fff"/>
              <path d="M663.189,265.545a7.967,7.967,0,0,0,6.669,3.872c3.381.109,5.672-2.3,7-4.334A83.736,83.736,0,0,1,663.189,265.545Z" style="fill: #1b1b43"/>
            </g>
            <path d="M690.541,246.321c.019.831.766-17.253-27.414-21.087,0,0-15.912,9.1-14.091,22.237l-8.642-1.632c-3.339-9.1-2.189-33.45,17.365-31.724,0,0,4.216-6.022,11.119-6.135,35.082-.575,29.541,38.326,28.7,39.448Z" style="fill: #1b1b43"/>
            <g>
              <ellipse cx="694.157" cy="252.209" rx="9.546" ry="7.916" transform="translate(237.223 832.445) rotate(-71.747)" style="fill: #ffbc96"/>
              <path d="M693.045,254.936l-1.522-.191c.264-2.115,1.783-6.174,5.637-6.4l.089,1.531C693.692,250.084,693.051,254.887,693.045,254.936Z" style="fill: #1b1b43"/>
            </g>
            <g>
              <ellipse cx="644.065" cy="252.209" rx="7.916" ry="9.546" transform="translate(-46.588 214.419) rotate(-18.253)" style="fill: #ffbc96"/>
              <path d="M645.177,254.937c-.025-.2-.663-4.854-4.205-5.062l.09-1.531c3.854.227,5.373,4.286,5.637,6.4Z" style="fill: #1b1b43"/>
            </g>
            <path d="M680.324,243.366a2.334,2.334,0,1,1-2.328-2.5A2.421,2.421,0,0,1,680.324,243.366Z" style="fill: #1b1b43"/>
            <rect x="673.884" y="234.638" width="9.718" height="2.825" rx="0.638" transform="translate(33.068 -79.41) rotate(6.863)" style="fill: #1b1b43"/>
            <path d="M657.9,243.366a2.334,2.334,0,1,0,2.328-2.5A2.421,2.421,0,0,0,657.9,243.366Z" style="fill: #1b1b43"/>
            <rect x="654.621" y="234.638" width="9.718" height="2.825" rx="0.638" transform="translate(1342.439 391.61) rotate(173.137)" style="fill: #1b1b43"/>
            <circle cx="682.344" cy="253.256" r="5.018" style="fill: #fe5b52;opacity: 0.4"/>
            <circle cx="655.878" cy="253.256" r="5.018" style="fill: #fe5b52;opacity: 0.4"/>
          </g>
        </g>
        <g>
          <g>
            <rect x="370.022" y="336.398" width="165.202" height="77.026" rx="12.588" style="fill: #fff"/>
            <path d="M527.5,414.162H377.744a8.469,8.469,0,0,1-8.46-8.46V344.121a8.469,8.469,0,0,1,8.46-8.46H527.5a8.469,8.469,0,0,1,8.46,8.46V405.7A8.469,8.469,0,0,1,527.5,414.162ZM377.744,337.136a6.992,6.992,0,0,0-6.985,6.985V405.7a6.992,6.992,0,0,0,6.985,6.984H527.5a6.993,6.993,0,0,0,6.985-6.984V344.121a6.993,6.993,0,0,0-6.985-6.985Z" style="fill: #5254cf"/>
          </g>
          <g>
            <rect x="388.401" y="355.357" width="128.442" height="1.534" style="fill: #e0e0ff"/>
            <rect x="388.401" y="374.144" width="128.442" height="1.534" style="fill: #e0e0ff"/>
            <rect x="388.401" y="392.931" width="128.442" height="1.534" style="fill: #e0e0ff"/>
          </g>
          <polygon points="390.548 394.602 389.346 393.649 398.501 382.106 414.26 387.487 427.827 372.757 441.621 383.87 457.819 365.743 472.508 382.691 485.631 348.725 499.246 370.119 515.075 347.296 516.336 348.17 499.191 372.89 485.967 352.109 473.019 385.623 457.802 368.064 441.794 385.978 427.982 374.852 414.71 389.262 399.03 383.908 390.548 394.602" style="fill: #5254cf"/>
        </g>
        <g>
          <g>
            <path d="M804.607,204.4l-7.393-59.794A60.255,60.255,0,1,0,864.868,204.4c0-1.762-.092-3.5-.24-5.226Z" style="fill: #fff"/>
            <path d="M804.607,265.428a61.022,61.022,0,0,1-7.487-121.583l.76-.093,7.4,59.82,60.05-5.228.065.765c.164,1.9.243,3.631.243,5.291A61.1,61.1,0,0,1,804.607,265.428Zm-8.06-119.963A59.489,59.489,0,1,0,864.1,204.4c0-1.391-.057-2.836-.175-4.4l-59.99,5.223Z" style="fill: #86a7ff"/>
          </g>
          <path d="M836.047,192.13l60.021-5.225a59.921,59.921,0,0,0-11.31-30.237Z" style="fill: #adc3ff"/>
          <g>
            <path d="M853.318,168.937a60.061,60.061,0,0,0-56.1-24.331l7.393,59.794Z" style="fill: #d3dfff"/>
            <path d="M804.005,205.786l-7.647-61.848.762-.093a60.84,60.84,0,0,1,56.818,24.641l.452.62Zm-5.936-60.508,7.139,57.735,47.034-34.241a59.729,59.729,0,0,0-47.635-23.867A58.716,58.716,0,0,0,798.069,145.278Z" style="fill: #86a7ff"/>
          </g>
        </g>
        <g>
          <g>
            <rect x="836.236" y="376.388" width="129.113" height="139.802" rx="15.512" style="fill: #fff"/>
            <path d="M955.833,516.926H845.753A10.264,10.264,0,0,1,835.5,506.674V385.9a10.264,10.264,0,0,1,10.253-10.252h110.08A10.264,10.264,0,0,1,966.085,385.9v120.77A10.264,10.264,0,0,1,955.833,516.926Zm-110.08-139.8a8.789,8.789,0,0,0-8.78,8.78v120.77a8.79,8.79,0,0,0,8.78,8.78h110.08a8.79,8.79,0,0,0,8.78-8.78V385.9a8.79,8.79,0,0,0-8.78-8.78Z" style="fill: #86a7ff"/>
          </g>
          <g>
            <rect x="850.95" y="396.405" width="99.687" height="1.615" style="fill: #e0e0ff"/>
            <rect x="850.95" y="420.943" width="99.687" height="1.615" style="fill: #e0e0ff"/>
            <rect x="850.95" y="445.481" width="99.687" height="1.615" style="fill: #e0e0ff"/>
            <rect x="850.95" y="470.02" width="99.687" height="1.615" style="fill: #e0e0ff"/>
            <rect x="850.95" y="494.558" width="99.687" height="1.615" style="fill: #e0e0ff"/>
          </g>
          <g>
            <rect x="850.949" y="429.383" width="8.49" height="66.789" style="fill: #cbcbff"/>
            <rect x="869.408" y="454.201" width="8.49" height="41.972" style="fill: #e0e0ff"/>
            <rect x="887.867" y="438.781" width="8.49" height="57.391" style="fill: #cbcbff"/>
            <rect x="906.326" y="428.42" width="8.49" height="67.752" style="fill: #e0e0ff"/>
            <rect x="924.785" y="415.912" width="8.49" height="80.261" style="fill: #cbcbff"/>
            <rect x="943.244" y="402.593" width="8.49" height="93.579" style="fill: #e0e0ff"/>
          </g>
        </g>
        <g>
          <g>
            <path d="M589.2,152.961h-75.19a8.936,8.936,0,0,0-8.936,8.936v30.437a8.936,8.936,0,0,0,8.936,8.936h51.349L585.1,218.14V201.27h4.1a8.936,8.936,0,0,0,8.937-8.936V161.9A8.936,8.936,0,0,0,589.2,152.961Z" style="fill: #fff"/>
            <path d="M585.908,219.888l-20.844-17.812H514.012a9.753,9.753,0,0,1-9.742-9.742V161.9a9.753,9.753,0,0,1,9.742-9.742H589.2a9.753,9.753,0,0,1,9.742,9.742v30.437a9.753,9.753,0,0,1-9.742,9.742h-3.294Zm-71.9-66.122a8.141,8.141,0,0,0-8.131,8.131v30.437a8.141,8.141,0,0,0,8.131,8.131h51.646L584.3,216.393V200.465h4.9a8.14,8.14,0,0,0,8.131-8.131V161.9a8.14,8.14,0,0,0-8.131-8.131Z" style="fill: #86a7ff"/>
          </g>
          <g>
            <rect x="516.472" y="165.23" width="60.195" height="1.534" style="fill: #9192ff"/>
            <rect x="516.472" y="175.582" width="68.247" height="1.534" style="fill: #9192ff"/>
            <rect x="516.472" y="185.934" width="47.926" height="1.534" style="fill: #9192ff"/>
          </g>
        </g>
        <path d="M1063.139,212.049a.5.5,0,0,0,0-1,.5.5,0,0,0,0,1Z" style="fill: #fff"/>
      </g>
      <g>
        <rect x="547.677" y="674.087" width="21.471" height="260.719" style="fill: #b0b0d2"/>
        <rect x="766.221" y="674.087" width="21.471" height="260.719" style="fill: #b0b0d2"/>
        <rect x="547.677" y="673.372" width="21.471" height="45.956" style="fill: #1b1b43;opacity: 0.30000000000000004"/>
        <rect x="766.221" y="673.372" width="21.471" height="45.956" style="fill: #1b1b43;opacity: 0.30000000000000004"/>
        <rect x="426.579" y="665.197" width="482.211" height="21.605" style="fill: #b0b0d2"/>
      </g>
      <g>
        <rect x="796.238" y="657.817" width="55.841" height="7.404" style="fill: #1b1b43"/>
        <path d="M804.5,665.221h-8.261l-32.914-86.835a3.863,3.863,0,0,1,3.612-5.232h0a3.863,3.863,0,0,1,3.612,2.494Z" style="fill: #1b1b43"/>
      </g>
      <g>
        <rect x="496.017" y="657.817" width="55.841" height="7.404" transform="translate(1047.875 1323.038) rotate(180)" style="fill: #1b1b43"/>
        <path d="M543.6,665.221h8.262l32.913-86.835a3.862,3.862,0,0,0-3.611-5.232h0a3.862,3.862,0,0,0-3.612,2.494Z" style="fill: #1b1b43"/>
      </g>
      <g>
        <g>
          <g>
            <polygon points="386.237 565.242 416.701 570.139 417.036 553.446 417.357 536.829 417.636 522.623 409.188 518.635 394.713 535.595 386.237 565.242" style="fill: #d28572"/>
            <path d="M404.591,536.656s3.676,7.715,12.445,16.79l.321-16.617Z" style="fill: #925d4f"/>
            <path d="M438.46,516.111c.355.2,9.646,14.428,5.471,15.715a28.649,28.649,0,0,1-9.445.793Z" style="fill: #925d4f"/>
            <path d="M441.519,504.007l-3.843,35.367a8.091,8.091,0,0,1-5.108,6.664h0a8.094,8.094,0,0,1-6.092-.092l-21.891-9.289-2.952-19.94,17.721-18.563Z" style="fill: #d28572"/>
            <polygon points="388.86 545.828 378.38 569.088 419.022 575.479 421.833 557.331 388.86 545.828" style="fill: #fed3d1"/>
            <path d="M415.555,516.67s17.968-3.032,25.964-12.663c0,0,2.964-18.625-24.434-21.093-29.725-2.677-57.6,39.381-57.6,39.381L395.8,554.012Z" style="fill: #1b1b43"/>
            <ellipse cx="414.393" cy="518.275" rx="6.209" ry="8.095" transform="translate(-191.131 246.851) rotate(-27.211)" style="fill: #d28572"/>
            <path d="M415.643,521.145c-.125-.848-.738-3.249-2.05-4.149a2.075,2.075,0,0,0-1.72-.293l-.337-1.5a3.588,3.588,0,0,1,2.929.528c2.133,1.468,2.673,5.039,2.7,5.19Z" style="fill: #1b1b43"/>
            <circle cx="428.575" cy="525.54" r="5.943" style="fill: #be443d;opacity: 0.30000000000000004"/>
          </g>
          <g>
            <path d="M432.282,621.242a29.943,29.943,0,0,1-17.36,20.015c-.522.214-1.043.414-1.58.613-.522.184-1.028.383-1.534.567a57.885,57.885,0,0,0-34.353,36.838c-.292.982-.537,1.918-.736,2.792,0,0-34.124,4.984-68.631-14.186,0,0,19.017-67.465,60.993-99.564a37.489,37.489,0,0,1,34.108-5.874,50.188,50.188,0,0,1,25.413,18.3l.751,1.043,3.712,27.084A31.3,31.3,0,0,1,432.282,621.242Z" style="fill: #fe5b52"/>
            <path d="M432.282,621.242a29.943,29.943,0,0,1-17.36,20.015c-.522.214-1.043.414-1.58.613-.522.184-1.028.383-1.534.567-5.306-13.02-9.662-33.724-9.662-33.724l25.566,3.389Z" style="fill: #be443d"/>
            <path d="M487.524,592.349s22.455-24,29.523-22.238c3.067.767-6.135,10.352-6.135,10.352s8.776.169,22.845-7.095a2.965,2.965,0,0,1,4.1,1.482h0a2.958,2.958,0,0,1-.43,3c-2.979,3.691-11.853,13.621-24.213,17.947l-5.245,6.779-13.159,6.257Z" style="fill: #d28572"/>
            <path d="M507.968,602.578,478.6,654.937a20.58,20.58,0,0,1-33.525,3.389l-42.927-49.613,27.207-26.931,29.8,40.856,28.372-30.289Z" style="fill: #fe5b52"/>
            <path d="M467.516,637.813c-17.228-26.9-40.105-58.732-52.38-69.228l1-1.166c14.163,12.111,39.774,49.427,52.675,69.567Z" style="fill: #1b1b43"/>
            <path d="M461.405,666.906a20.4,20.4,0,0,1-9.688-2.645c-9.4-5.075-48.5-53.026-50.165-55.064l1.189-.969c.405.5,40.575,49.752,49.705,54.684,10.387,5.61,17.436.51,20.713-3.029,5.221-5.639,33.85-57.158,34.138-57.677l1.341.744c-1.182,2.129-29.008,52.2-34.354,57.975A17.32,17.32,0,0,1,461.405,666.906Z" style="fill: #1b1b43"/>
          </g>
          <g>
            <path d="M413.143,874.282l-26.449,52.154,5.778.818,9.588-13.615,30.061,21.222,17.626-.074s3.576-3.549-5.579-13.063a57.956,57.956,0,0,1-16.636-41.164l.024-1.319-7.209-7.355Z" style="fill: #1b1b43"/>
            <path d="M414.249,890.58l-5.835,44.19h5.835l7.585-14.825L449.842,934.2h22.173s3.043-4.015-7.355-12.153a57.955,57.955,0,0,1-22.242-38.424l-.161-1.31-8.169-6.272Z" style="fill: #393a8f"/>
            <path d="M445.349,896.01,486.4,751.666a24.869,24.869,0,0,0-13.142-29.215l-36.966-17.78-2.2,171.37Z" style="fill: #1b1b43"/>
            <path d="M308.088,667.881l-8.269,39.368a36.993,36.993,0,0,0,36.2,44.6H413.4c-7.74,37.826-2.71,89.858,0,143.4l31.951.767L467.39,758.405a49.157,49.157,0,0,0-31.1-53.734l-59.571-22.6Z" style="fill: #3a6bea"/>
            <path d="M436.141,896.108l-1.521-.2c.169-1.3,16.8-130,12.276-153.632-4.675-24.419-51.75-31.467-77.039-35.254-2.251-.337-4.322-.647-6.167-.941-6.335-1.008-10.842-3.743-13.395-8.129-5.035-8.65-.682-20.514-.494-21.014l1.436.538c-.043.116-4.284,11.693.387,19.71,2.31,3.966,6.451,6.449,12.307,7.381,1.841.293,3.907.6,6.153.938,25.665,3.843,73.439,11,78.319,36.482,1.922,10.038.442,39.03-4.4,86.17C440.4,863.23,436.183,895.784,436.141,896.108Z" style="fill: #fff;opacity: 0.4"/>
          </g>
        </g>
        <g>
          <g>
            <polygon points="325.664 758.074 320.373 788.655 295.052 935.01 284.409 935.01 309.729 788.655 315.02 758.074 325.664 758.074" style="fill: #b0b0d2"/>
            <polygon points="396.211 935.01 385.568 935.01 360.247 788.655 354.956 758.074 365.6 758.074 370.891 788.655 396.211 935.01" style="fill: #b0b0d2"/>
            <polygon points="325.664 758.074 320.373 788.655 309.729 788.655 315.02 758.074 325.664 758.074" style="fill: #1b1b43;opacity: 0.30000000000000004"/>
            <polygon points="370.891 788.655 360.247 788.655 354.956 758.074 365.6 758.074 370.891 788.655" style="fill: #1b1b43;opacity: 0.30000000000000004"/>
          </g>
          <path d="M387.318,766.417h-99.6v-14.57h99.6a7.285,7.285,0,0,1,7.285,7.285h0A7.285,7.285,0,0,1,387.318,766.417Z" style="fill: #cbcbff"/>
          <path d="M301.777,766.417H287.719l-47.485-116.4a6.583,6.583,0,0,1,3.289-8.442h0a6.584,6.584,0,0,1,8.905,3.475Z" style="fill: #cbcbff"/>
        </g>
      </g>
      <g>
        <g>
          <g>
            <path d="M948.7,515.107c-.36.183-10.212,13.916-6.119,15.377a28.477,28.477,0,0,0,9.35,1.2Z" style="fill: #d28572"/>
            <polygon points="998.457 566.198 965.647 570.082 966.254 553.45 966.873 536.893 967.396 522.738 976.647 519.042 991.121 536.401 998.457 566.198" style="fill: #ffbc96"/>
            <path d="M980.513,537.136s-4.371,7.562-14.259,16.314l.619-16.557Z" style="fill: #d28572"/>
            <path d="M946.192,502.947l2.28,35.309a8.043,8.043,0,0,0,4.785,6.844h0a8.044,8.044,0,0,0,6.057.173L981.469,537l3.8-19.685-16.8-19.216Z" style="fill: #ffbc96"/>
            <path d="M971.833,517.3s-5.441-10.563-11.107-12.178c0,0-21.815,7.108-26.619-9.622,0,0,12.291.117,22.826-7.258s21.525-3.835,29.134,3.048c0,0,24.858,1.226,5.259,45.086,0,0-4.926,1.634-17.47-15.887Z" style="fill: #1b1b43"/>
            <path d="M977.944,520.912c-2.2,3.862-6.373,5.633-9.31,3.957s-3.532-6.167-1.327-10.029,6.373-5.633,9.31-3.957S980.148,517.05,977.944,520.912Z" style="fill: #ffbc96"/>
            <ellipse cx="959.023" cy="523.718" rx="6.039" ry="6.135" style="fill: #fe5b52;opacity: 0.4"/>
            <path d="M970.821,520.574c-.3-1.988.25-6.066,4.478-7.274l.421,1.475c-4,1.143-3.41,5.39-3.382,5.57Z" style="fill: #1b1b43"/>
          </g>
          <polygon points="965.647 570.082 966.02 552.985 994.904 545.573 1003.339 566.788 965.647 570.082" style="fill: #cbcbff"/>
          <path d="M970.11,563.21c-14.5,14.11-25.05,35.273-38.341,56.744,0,0-45.051,11.63-57.959,24.539l23.2,11.757,79.238-21.982Z" style="fill: #1b1b43"/>
          <g>
            <path d="M852.965,883.4l-18.071,51.312-56.545-14.108s8.8-12.031,35.332-8.572l14.109-39.655Z" style="fill: #1b1b43"/>
            <path d="M966.02,680.533l-81.667,26.542a58.793,58.793,0,0,0-38.8,41.392l-32.9,136.04,44.476,11.5a939.949,939.949,0,0,0,46.009-138.539Z" style="fill: #393a8f"/>
            <path d="M936.37,887.29l6.645,47.543H881.159s5.623-13.8,32.206-16.87l-1.534-28.628Z" style="fill: #1b1b43"/>
            <path d="M1040.056,666.981l8.269,39.368c4.829,22.989-12.422,45.882-35.912,45.882H938.031c4.18,38.218,8.205,88.574,5.5,142.112l-40.732.767-22.04-137.6a49.158,49.158,0,0,1,31.1-53.735l54.166-23.238Z" style="fill: #5254cf"/>
          </g>
          <path d="M1042.7,679.766c-6.7-63.989-16.281-124.369-64.482-121.591a11.72,11.72,0,0,0-7.568,3.47h0a40.035,40.035,0,0,0-11.6,31.488l6.967,87.4S1003.594,687.434,1042.7,679.766Z" style="fill: #1b1b43"/>
          <g>
            <path d="M873.81,643.917s-28.372,5.368-32.973,21.471H881.1l7.668-5.367Z" style="fill: #ffbc96"/>
            <path d="M978.481,572.22l-36.808,57.128L873.81,643.917l7.285,21.471,56.9-.291c15.278-.3,28.351-8.285,36.844-20.988l31.632-45.434Z" style="fill: #1b1b43"/>
          </g>
          <path d="M873.971,644.667l-.322-1.5,67.445-14.48c1.8-5.071,3.581-10.323,5.309-15.407,7.085-20.852,13.778-40.548,22.077-51.307l1.214.937c-8.143,10.557-14.8,30.136-21.839,50.864C946.08,619,944.245,624.4,942.4,629.6l-.143.4-.418.089Z" style="fill: #5254cf"/>
          <path d="M914.484,666.454c-15.782,0-32.168-.278-33.4-.3l.027-1.533c.553.009,55.389.939,62.124-.558l.207-.045a51.119,51.119,0,0,0,36.125-30.469l7.6-18.488,1.419.583-7.6,18.489a52.653,52.653,0,0,1-37.21,31.381l-.205.046C940.422,666.261,927.663,666.454,914.484,666.454Z" style="fill: #5254cf"/>
        </g>
        <g>
          <g>
            <polygon points="1056.448 935.005 1067.094 935.005 1036.481 758.07 1025.835 758.07 1056.448 935.005" style="fill: #b0b0d2"/>
            <polygon points="965.934 935.005 955.287 935.005 985.9 758.07 996.546 758.07 965.934 935.005" style="fill: #b0b0d2"/>
            <g>
              <polygon points="996.527 758.07 991.236 788.651 980.592 788.651 985.883 758.07 996.527 758.07" style="fill: #1b1b43;opacity: 0.30000000000000004"/>
              <polygon points="1041.754 788.651 1031.11 788.651 1025.819 758.07 1036.463 758.07 1041.754 788.651" style="fill: #1b1b43;opacity: 0.30000000000000004"/>
            </g>
          </g>
          <path d="M964.182,766.417h99.6v-14.57h-99.6a7.285,7.285,0,0,0-7.285,7.285h0A7.285,7.285,0,0,0,964.182,766.417Z" style="fill: #cbcbff"/>
          <path d="M1049.723,766.417h14.058l47.485-116.4a6.584,6.584,0,0,0-3.289-8.442h0a6.584,6.584,0,0,0-8.905,3.475Z" style="fill: #cbcbff"/>
        </g>
      </g>
      <rect x="185.56" y="934.095" width="976.88" height="1.534" style="fill: #1b1b43"/>
    </g>
  </g>
</svg>
