<svg xmlns="http://www.w3.org/2000/svg" viewBox="0 0 160.127 34.197">
  <g id="a577fb7d-cb58-457e-b556-60ffa475e1a7" data-name="Layer 2">
    <g id="f5201ff6-e486-4cb6-b4bf-88ed50bdc8d0" data-name="OBJECTS">
      <g>
        <text transform="translate(51.647 15.652)" style="font-size: 14.40645980834961px;fill: #fff;font-family: Montserrat-Bold, Montserrat;font-weight: 700">MANI<tspan x="41.159" y="0" style="letter-spacing: -0.03097839916516773em">K</tspan><tspan x="51.373" y="0">AN</tspan><tspan x="74.048" y="0" style="letter-spacing: -0.00996460542074323em">D</tspan><tspan x="85.804" y="0">AN</tspan></text>
        <text transform="translate(52.843 29.389)" style="font-size: 7.790420055389404px;fill: #fff;font-family: Montserrat-Light, Montserrat;font-weight: 300"><tspan style="letter-spacing: -0.008962831048076244em">L</tspan><tspan x="4.487" y="0" style="letter-spacing: -0.015042513647120968em">e</tspan><tspan x="9.021" y="0" style="letter-spacing: 0.00006267714019633736em">a</tspan><tspan x="13.563" y="0" style="letter-spacing: -0.008962831048076244em">r</tspan><tspan x="16.563" y="0">n </tspan><tspan x="23.807" y="0" style="letter-spacing: -0.018991173479490222em">t</tspan><tspan x="26.76" y="0">o c</tspan><tspan x="37.916" y="0" style="letter-spacing: -0.013977002263783232em">r</tspan><tspan x="40.876" y="0" style="letter-spacing: -0.015042513647120968em">e</tspan><tspan x="45.41" y="0" style="letter-spacing: 0.00006267714019633736em">a</tspan><tspan x="49.952" y="0" style="letter-spacing: -0.018991173479490222em">t</tspan><tspan x="52.904" y="0" style="letter-spacing: -0.00006267714019633736em">e a </tspan><tspan x="66.101" y="0" style="letter-spacing: -0.01497983650692463em">w</tspan><tspan x="72.699" y="0">eb</tspan><tspan x="82.608" y="0" style="letter-spacing: -0.0020056684862827957em">p</tspan><tspan x="87.851" y="0" style="letter-spacing: 0.0010028342431413978em">a</tspan><tspan x="92.401" y="0">ges</tspan></text>
        <g>
          <path d="M41.961,13.217A20.979,20.979,0,0,1,5.6,27.48,20.814,20.814,0,0,1,2.209,22.6a1.15,1.15,0,0,1-.05-.107,20.307,20.307,0,0,1-.874-2.026c-.019-.057-.042-.114-.061-.171-.053-.148-.1-.3-.152-.445-.065-.19-.125-.38-.182-.574-.054-.167-.1-.338-.149-.509L.7,18.6c-.035-.133-.069-.266-.1-.4s-.061-.259-.087-.388-.054-.236-.076-.35c-.1-.5-.191-1.007-.255-1.52-.012-.092-.023-.187-.034-.278A20.722,20.722,0,0,1,0,13.217c0-.084,0-.168.008-.251H4.125c0,.083-.008.167-.008.251,0,.33.011.661.03.992.008.14.016.281.031.422.015.205.038.407.061.612.053.467.129.924.224,1.376.03.16.065.315.1.471.007.038.019.073.026.111a16.864,16.864,0,0,0,33.252-3.984c0-.084-.007-.168-.007-.251h4.117C41.954,13.049,41.961,13.133,41.961,13.217Z" style="fill: #fff"/>
          <path d="M23.835,26.431h-5.71L12.178,12.948l-4.7,10.373L5.6,27.482A20.877,20.877,0,0,1,2.21,22.6l2.383-5.4L12.178,0Z" style="fill: #fff"/>
          <path d="M39.75,22.6a20.958,20.958,0,0,1-3.4,4.893l-1.88-4.163L29.782,12.948l-8,18.085h-5.71L29.782,0l7.585,17.2Z" style="fill: #fff"/>
        </g>
      </g>
    </g>
  </g>
</svg>
