<svg xmlns="http://www.w3.org/2000/svg" viewBox="0 0 185.971 185.971">
  <g id="a8ce4137-98d0-40ca-85f8-a1015308e305" data-name="Layer 2">
    <g id="b60d27e5-1edf-42fc-9027-85644240756f" data-name="OBJECTS">
      <g>
        <g>
          <path d="M118.383,46.467v34.12h28.928V44.949c0-5.442-3.207-9.855-7.163-9.855h-14.6c-3.955,0-7.161,4.413-7.161,9.855Z" style="fill: #d3dfff"/>
          <path d="M118.383,130.179v13.5a7.162,7.162,0,0,0,7.161,7.162h14.6a7.163,7.163,0,0,0,7.163-7.162v-25.9H118.383Z" style="fill: #3a6bea"/>
          <rect x="118.383" y="80.587" width="28.928" height="37.196" style="fill: #3a6bea"/>
          <path d="M125.544,152.91h14.6a9.239,9.239,0,0,0,9.227-9.229V41.688a9.239,9.239,0,0,0-9.227-9.229h-14.6a9.24,9.24,0,0,0-9.229,9.229,2.067,2.067,0,0,0,4.134,0,5.1,5.1,0,0,1,5.095-5.1h14.6a5.1,5.1,0,0,1,5.1,5.1V143.681a5.1,5.1,0,0,1-5.1,5.1h-14.6a5.1,5.1,0,0,1-5.095-5.1,2.067,2.067,0,0,0-4.134,0A9.24,9.24,0,0,0,125.544,152.91Z" style="fill: #102048"/>
          <path d="M118.383,82.654h28.928a2.067,2.067,0,0,0,0-4.134H118.383a2.067,2.067,0,1,0,0,4.134Z" style="fill: #102048"/>
          <path d="M118.383,119.848h28.928a2.067,2.067,0,0,0,0-4.133H118.383a2.067,2.067,0,1,0,0,4.133Z" style="fill: #102048"/>
        </g>
        <path d="M56.393,32.1V51.658H15.067V32.1a9.366,9.366,0,0,1,9.368-9.369H47.024A9.366,9.366,0,0,1,56.393,32.1Z" style="fill: #d3dfff"/>
        <path d="M56.393,130.179v11.294a9.37,9.37,0,0,1-9.369,9.37H24.435a9.369,9.369,0,0,1-9.368-9.37V130.179Z" style="fill: #d3dfff"/>
        <polygon points="15.067 51.658 15.067 130.179 56.393 130.179 56.393 117.783 56.393 80.587 56.393 54.688 56.393 51.658 15.067 51.658" style="fill: #eb5d60"/>
        <path d="M85.321,55.791v24.8H56.393v-25.9a7.162,7.162,0,0,1,7.163-7.162h14.6a7.162,7.162,0,0,1,7.162,7.162Z" style="fill: #d3dfff"/>
        <path d="M171.508,10.331a4.133,4.133,0,1,1-4.134,4.133A4.133,4.133,0,0,1,171.508,10.331Z" style="fill: #102048"/>
        <path d="M161.174,35.127a10.332,10.332,0,1,1-10.329,10.332A10.33,10.33,0,0,1,161.174,35.127Z" style="fill: #d7deed"/>
        <path d="M142.58,163.24a4.133,4.133,0,1,1-4.134,4.133A4.133,4.133,0,0,1,142.58,163.24Z" style="fill: #102048"/>
        <path d="M130.182,163.24a4.133,4.133,0,1,1-4.134,4.133A4.137,4.137,0,0,1,130.182,163.24Z" style="fill: #102048"/>
        <path d="M118.385,130.179v13.5a7.163,7.163,0,0,1-7.163,7.162H92.484a7.164,7.164,0,0,1-7.163-7.162v-13.5Z" style="fill: #ffc885"/>
        <path d="M118.385,126.038a29.253,29.253,0,0,1,0,4.141H85.321V55.791h33.064V91.022c-.005,0,0,0,0,0C119.19,101.122,115.925,112.748,118.385,126.038Z" style="fill: #ffb147"/>
        <path d="M118.385,42.29v13.5H85.321V42.29a7.164,7.164,0,0,1,7.163-7.163h18.738A7.164,7.164,0,0,1,118.385,42.29Z" style="fill: #ffc885"/>
        <path d="M92.984,14.464A4.134,4.134,0,1,1,88.855,18.6,4.135,4.135,0,0,1,92.984,14.464Z" style="fill: #102048"/>
        <path d="M85.321,130.179v13.5a7.162,7.162,0,0,1-7.162,7.162h-14.6a7.162,7.162,0,0,1-7.163-7.162v-25.9H85.321Z" style="fill: #3a6bea"/>
        <rect x="56.393" y="80.587" width="28.928" height="37.196" style="fill: #3a6bea"/>
        <path d="M64.056,2.067a8.265,8.265,0,1,1-8.265,8.264A8.262,8.262,0,0,1,64.056,2.067Z" style="fill: #d7deed"/>
        <path d="M18.6,2.067A4.132,4.132,0,1,1,14.465,6.2,4.134,4.134,0,0,1,18.6,2.067Z" style="fill: #102048"/>
        <path d="M27.465,105.383a4.133,4.133,0,1,1-4.133,4.133A4.133,4.133,0,0,1,27.465,105.383Z" style="fill: #102048"/>
        <path d="M47.024,152.91H24.435A11.449,11.449,0,0,1,13,141.473V32.1A11.447,11.447,0,0,1,24.435,20.664H47.024A11.446,11.446,0,0,1,58.457,32.1V54.688a2.064,2.064,0,1,1-4.128,0V32.1a7.312,7.312,0,0,0-7.3-7.3H24.435a7.313,7.313,0,0,0-7.3,7.305V141.473a7.312,7.312,0,0,0,7.3,7.3H47.024a7.311,7.311,0,0,0,7.305-7.3,2.064,2.064,0,1,1,4.128,0A11.447,11.447,0,0,1,47.024,152.91Z" style="fill: #102048"/>
        <path d="M78.159,152.91h-14.6a9.239,9.239,0,0,1-9.227-9.229V54.688a9.239,9.239,0,0,1,9.227-9.229h14.6a9.24,9.24,0,0,1,9.23,9.229,2.067,2.067,0,0,1-4.134,0,5.1,5.1,0,0,0-5.1-5.1h-14.6a5.1,5.1,0,0,0-5.1,5.1v88.993a5.1,5.1,0,0,0,5.1,5.1h14.6a5.1,5.1,0,0,0,5.1-5.1,2.067,2.067,0,0,1,4.134,0A9.24,9.24,0,0,1,78.159,152.91Z" style="fill: #102048"/>
        <path d="M111.222,152.91H92.484a9.239,9.239,0,0,1-9.229-9.229V42.29a9.238,9.238,0,0,1,9.229-9.227h18.738a9.238,9.238,0,0,1,9.23,9.227V91.022a2.067,2.067,0,1,1-4.134,0V42.29a5.1,5.1,0,0,0-5.1-5.1H92.484a5.1,5.1,0,0,0-5.095,5.1V143.681a5.1,5.1,0,0,0,5.095,5.1h18.738a5.1,5.1,0,0,0,5.1-5.1V88.954a2.067,2.067,0,0,1,4.134,0v54.727A9.24,9.24,0,0,1,111.222,152.91Z" style="fill: #102048"/>
        <path d="M56.393,53.725H15.067a2.067,2.067,0,0,1,0-4.134H56.393a2.067,2.067,0,0,1,0,4.134Z" style="fill: #102048"/>
        <path d="M56.393,132.246H15.067a2.066,2.066,0,1,1,0-4.131H56.393a2.066,2.066,0,0,1,0,4.131Z" style="fill: #102048"/>
        <path d="M85.321,82.654H56.393a2.067,2.067,0,0,1,0-4.134H85.321a2.067,2.067,0,1,1,0,4.134Z" style="fill: #102048"/>
        <path d="M118.385,57.858H85.321a2.067,2.067,0,0,1,0-4.133h33.064a2.067,2.067,0,1,1,0,4.133Z" style="fill: #102048"/>
        <path d="M118.385,132.246H85.321a2.066,2.066,0,1,1,0-4.131h33.064a2.066,2.066,0,1,1,0,4.131Z" style="fill: #102048"/>
        <path d="M85.321,119.848H56.393a2.067,2.067,0,0,1,0-4.133H85.321a2.067,2.067,0,1,1,0,4.133Z" style="fill: #102048"/>
        <path d="M64.056,20.664A10.332,10.332,0,1,1,74.389,10.331,10.346,10.346,0,0,1,64.056,20.664Zm0-16.53a6.2,6.2,0,1,0,6.2,6.2A6.205,6.205,0,0,0,64.056,4.134Z" style="fill: #102048"/>
        <path d="M161.174,57.858a12.4,12.4,0,1,1,12.4-12.4A12.413,12.413,0,0,1,161.174,57.858Zm0-20.664a8.266,8.266,0,1,0,8.265,8.265A8.275,8.275,0,0,0,161.174,37.194Z" style="fill: #102048"/>
        <path d="M27.465,99.186A2.068,2.068,0,0,1,25.4,97.117V68.188a2.067,2.067,0,0,1,4.133,0V97.117A2.067,2.067,0,0,1,27.465,99.186Z" style="fill: #102048"/>
        <path d="M117.783,169.441H2.067a2.068,2.068,0,0,1,0-4.135H117.783a2.068,2.068,0,0,1,0,4.135Z" style="fill: #102048"/>
        <path d="M183.906,185.971H76.455a2.067,2.067,0,0,1,0-4.134H183.906a2.067,2.067,0,0,1,0,4.134Z" style="fill: #102048"/>
        <path d="M105.984,70.257H97.721a2.068,2.068,0,0,1,0-4.135h8.263a2.068,2.068,0,1,1,0,4.135Z" style="fill: #102048"/>
        <path d="M105.984,82.654H97.721a2.067,2.067,0,0,1,0-4.134h8.263a2.067,2.067,0,1,1,0,4.134Z" style="fill: #102048"/>
      </g>
    </g>
  </g>
</svg>
