<svg xmlns="http://www.w3.org/2000/svg" viewBox="0 0 181.871 187.889">
  <g id="a4fd5696-bd0f-4505-8691-5721a1bfcb0e" data-name="Layer 2">
    <g id="aaf003f3-c680-452b-abc6-30cf817f4236" data-name="OBJECTS">
      <g>
        <path d="M15.357,22.992A13.332,13.332,0,0,0,2.023,36.329v88.913H179.85V36.329a13.337,13.337,0,0,0-13.337-13.337Z" style="fill: #fff"/>
        <path d="M2.023,125.242v10.913a13.33,13.33,0,0,0,13.334,13.337H166.513a13.335,13.335,0,0,0,13.337-13.337V125.242Z" style="fill: #102048"/>
        <path d="M143.476,22.992V88.869s-25.194-12.259-52.54,0V8.037c26.27-13.539,52.54,0,52.54,0Z" style="fill: #edf1f7"/>
        <path d="M90.936,8.037V88.869c-27.349-12.259-52.542,0-52.542,0V8.037S64.664-5.5,90.936,8.037Z" style="fill: #adc3ff"/>
        <path d="M155.6,161.617a8.084,8.084,0,1,1-8.084,8.085A8.084,8.084,0,0,1,155.6,161.617Z" style="fill: #86a7ff"/>
        <path d="M22.229,169.7a8.084,8.084,0,1,1-8.084,8.083A8.084,8.084,0,0,1,22.229,169.7Z" style="fill: #86a7ff"/>
        <path d="M159.643,133.327a4.041,4.041,0,1,1-4.042,4.043A4.044,4.044,0,0,1,159.643,133.327Z" style="fill: #fff"/>
        <path d="M147.517,133.327a4.041,4.041,0,1,1-4.041,4.043A4.044,4.044,0,0,1,147.517,133.327Z" style="fill: #fff"/>
        <path d="M135.394,133.327a4.041,4.041,0,1,1-4.043,4.043A4.044,4.044,0,0,1,135.394,133.327Z" style="fill: #fff"/>
        <path d="M127.309,161.617a4.043,4.043,0,1,1-4.04,4.043A4.043,4.043,0,0,1,127.309,161.617Z" style="fill: #102048"/>
        <path d="M107.1,105.037a4.041,4.041,0,1,1-4.041,4.04A4.043,4.043,0,0,1,107.1,105.037Z" style="fill: #102048"/>
        <path d="M94.977,105.037a4.041,4.041,0,1,1-4.041,4.04A4.044,4.044,0,0,1,94.977,105.037Z" style="fill: #102048"/>
        <path d="M42.437,157.577a4.042,4.042,0,1,1-4.043,4.04A4.043,4.043,0,0,1,42.437,157.577Z" style="fill: #102048"/>
        <path d="M179.85,127.266H2.023a2.022,2.022,0,1,1,0-4.043H179.85a2.022,2.022,0,0,1,0,4.043Z" style="fill: #102048"/>
        <path d="M111.143,183.848a2.019,2.019,0,0,1-2.02-2.021V149.492a2.021,2.021,0,0,1,4.042,0v32.335A2.022,2.022,0,0,1,111.143,183.848Z" style="fill: #102048"/>
        <path d="M70.728,183.848a2.021,2.021,0,0,1-2.021-2.021V149.492a2.021,2.021,0,0,1,4.041,0v32.335A2.02,2.02,0,0,1,70.728,183.848Z" style="fill: #102048"/>
        <path d="M123.269,183.848H58.6a2.021,2.021,0,1,1,0-4.042h64.666a2.021,2.021,0,1,1,0,4.042Z" style="fill: #102048"/>
        <path d="M82.853,183.848a2.021,2.021,0,0,1-2.021-2.021V165.66a2.02,2.02,0,0,1,4.04,0v16.167A2.02,2.02,0,0,1,82.853,183.848Z" style="fill: #102048"/>
        <path d="M99.02,183.848A2.021,2.021,0,0,1,97,181.827V165.66a2.02,2.02,0,0,1,4.04,0v16.167A2.019,2.019,0,0,1,99.02,183.848Z" style="fill: #102048"/>
        <path d="M166.513,151.513H15.357A15.374,15.374,0,0,1,0,136.155V36.329A15.375,15.375,0,0,1,15.357,20.971H38.394a2.021,2.021,0,1,1,0,4.041H15.357A11.33,11.33,0,0,0,4.041,36.329v99.826a11.331,11.331,0,0,0,11.316,11.318H166.513a11.329,11.329,0,0,0,11.315-11.318V36.329a11.328,11.328,0,0,0-11.315-11.317H143.476a2.021,2.021,0,0,1,0-4.041h23.037a15.375,15.375,0,0,1,15.358,15.358v99.826A15.374,15.374,0,0,1,166.513,151.513Z" style="fill: #102048"/>
        <path d="M90.936,90.888a2.029,2.029,0,0,1-.827-.175c-26.12-11.7-50.588-.146-50.831-.025a2.025,2.025,0,0,1-2.9-1.819V8.037a2.017,2.017,0,0,1,1.1-1.8,63.811,63.811,0,0,1,17-5.273C63.764-.626,77.792-1.008,91.862,6.242A2.02,2.02,0,0,1,90.01,9.833C76.987,3.12,63.941,3.46,55.292,4.929A64.224,64.224,0,0,0,40.415,9.322V85.841A70.1,70.1,0,0,1,54.1,82.274a66.8,66.8,0,0,1,37.667,4.753,2.019,2.019,0,0,1-.826,3.861Z" style="fill: #102048"/>
        <path d="M90.936,90.888a2.012,2.012,0,0,1-2.02-2.019V8.037a2.019,2.019,0,0,1,1.094-1.8A56.669,56.669,0,0,1,116.232,0,66.755,66.755,0,0,1,144.4,6.242a2.02,2.02,0,0,1,1.1,1.8V88.869a2.021,2.021,0,0,1-2.9,1.819h0a65.426,65.426,0,0,0-25.883-5.249,60.6,60.6,0,0,0-24.948,5.274A2,2,0,0,1,90.936,90.888ZM116.71,81.4a71.378,71.378,0,0,1,24.746,4.435V9.324A64.98,64.98,0,0,0,116.232,4.04,52.749,52.749,0,0,0,92.957,9.287V85.831A64.762,64.762,0,0,1,116.71,81.4Z" style="fill: #102048"/>
        <path d="M74.769,30.267a2.025,2.025,0,0,1-.4-.04L54.165,26.185a2.02,2.02,0,1,1,.791-3.961l20.208,4.04a2.021,2.021,0,0,1-.395,4Z" style="fill: #102048"/>
        <path d="M74.769,42.392a2.19,2.19,0,0,1-.4-.04L54.165,38.311a2.022,2.022,0,0,1,.791-3.965l20.208,4.042a2.021,2.021,0,0,1-.395,4Z" style="fill: #102048"/>
        <path d="M74.769,54.515a2.185,2.185,0,0,1-.4-.038L54.165,50.432a2.019,2.019,0,1,1,.791-3.959l20.208,4.04a2.02,2.02,0,0,1-.395,4Z" style="fill: #102048"/>
        <path d="M74.769,66.64a1.952,1.952,0,0,1-.4-.04L54.165,62.559a2.02,2.02,0,1,1,.791-3.961l20.208,4.04a2.02,2.02,0,0,1-.395,4Z" style="fill: #102048"/>
        <path d="M107.1,30.267a2.021,2.021,0,0,1-.395-4l20.209-4.04a2.02,2.02,0,1,1,.792,3.961L107.5,30.227A2.012,2.012,0,0,1,107.1,30.267Z" style="fill: #102048"/>
        <path d="M107.1,42.392a2.022,2.022,0,0,1-.395-4l20.209-4.042a2.022,2.022,0,0,1,.792,3.965L107.5,42.352A2.175,2.175,0,0,1,107.1,42.392Z" style="fill: #102048"/>
        <path d="M107.1,54.515a2.021,2.021,0,0,1-.395-4l20.209-4.04a2.019,2.019,0,1,1,.792,3.959L107.5,54.477A2.17,2.17,0,0,1,107.1,54.515Z" style="fill: #102048"/>
        <path d="M107.1,66.64a2.021,2.021,0,0,1-.395-4l20.209-4.04a2.02,2.02,0,1,1,.792,3.961L107.5,66.6A1.94,1.94,0,0,1,107.1,66.64Z" style="fill: #102048"/>
        <path d="M82.853,111.1H2.023a2.021,2.021,0,1,1,0-4.042h80.83a2.021,2.021,0,0,1,0,4.042Z" style="fill: #102048"/>
        <path d="M22.229,187.889a10.1,10.1,0,1,1,10.1-10.1A10.116,10.116,0,0,1,22.229,187.889Zm0-16.168a6.064,6.064,0,1,0,6.061,6.064A6.07,6.07,0,0,0,22.229,171.721Z" style="fill: #102048"/>
        <path d="M155.6,179.806a10.1,10.1,0,1,1,10.1-10.1A10.116,10.116,0,0,1,155.6,179.806Zm0-16.165a6.061,6.061,0,1,0,6.063,6.061A6.067,6.067,0,0,0,155.6,163.641Z"/>
      </g>
    </g>
  </g>
</svg>
